<svg width="24" height="24" viewBox="0 0 24 24" fill="none" xmlns="http://www.w3.org/2000/svg">
<path d="M12 0C11.6114 0 11.2969 0.314484 11.2969 0.703125C11.2969 1.09177 11.6114 1.40625 12 1.40625C17.8159 1.40625 22.5938 6.18413 22.5938 12C22.5938 17.8159 17.8159 22.5938 12 22.5938C6.18413 22.5938 1.40625 17.8159 1.40625 12C1.40625 9.17264 2.6438 6.46402 4.64062 4.49292V5.67188C4.64062 6.06052 4.95511 6.375 5.34375 6.375C5.73239 6.375 6.04688 6.06052 6.04688 5.67188V2.85938C6.04688 2.47073 5.70895 2.15625 5.32031 2.15625H2.50781C2.11917 2.15625 1.80469 2.47073 1.80469 2.85938C1.80469 3.24802 2.11917 3.55781 2.50781 3.55781H3.56541C1.34498 5.78531 0 8.82797 0 12C0 18.5911 5.40891 24 12 24C18.5911 24 24 18.5911 24 12C24 5.40891 18.5911 0 12 0Z" fill="#EF8C03"/>
<path fill-rule="evenodd" clip-rule="evenodd" d="M19.6987 11.2952C19.5354 9.50912 19.0876 8.43092 17.9399 7.05269C17.5885 6.63068 17.3676 6.40974 16.9456 6.05833C15.5673 4.91063 14.4891 4.46283 12.703 4.29958C12.1561 4.24959 11.8437 4.24959 11.2968 4.29958C9.51071 4.46283 8.22662 5.08056 7.05427 6.05833C7.05427 6.05833 6.41133 6.63068 6.05991 7.05269C4.91222 8.43092 4.46442 9.50912 4.30116 11.2952C4.25118 11.8421 4.25117 12.1546 4.30116 12.7015C4.46442 14.4875 4.9123 15.5656 6.05991 16.9439C6.41133 17.3659 6.63226 17.5869 7.05427 17.9383C8.43247 19.0861 9.51071 19.5338 11.2968 19.6971C11.8437 19.7471 12.1561 19.7471 12.703 19.6971C14.4891 19.5338 15.7732 18.9161 16.9456 17.9383L17.9399 16.9439C18.9177 15.7715 19.5354 14.4875 19.6987 12.7015C19.7487 12.1546 19.7487 11.8421 19.6987 11.2952ZM12.909 13.9017C13.1837 14.1764 13.6286 14.1764 13.9033 13.9017C14.1779 13.627 14.1779 13.1821 13.9033 12.9074L12.703 11.7072V9.18583C12.703 8.79719 12.3886 8.4827 11.9999 8.4827C11.6113 8.4827 11.2968 8.79719 11.2968 9.18583V11.9983C11.2968 12.1851 11.3709 12.3636 11.5028 12.4954L12.909 13.9017Z" fill="#EF8C03"/>
</svg>
