<svg
  width="24"
  height="24"
  viewBox="0 0 24 24"
  fill="none"
  xmlns="http://www.w3.org/2000/svg"
>
<path
    d="M12 0C11.6117 0 11.2969 0.314812 11.2969 0.703125C11.2969 1.09144 11.6117 1.40625 12 1.40625C17.8414 1.40625 22.5938 6.15858 22.5938 12C22.5938 17.8414 17.8414 22.5938 12 22.5938C6.15858 22.5938 1.40625 17.8414 1.40625 12C1.40625 9.17077 2.59547 6.43912 4.64142 4.45144V5.67188C4.64142 6.06019 4.95623 6.375 5.34455 6.375C5.73286 6.375 6.04688 6.06019 6.04688 5.67188V2.85938C6.04688 2.47106 5.73286 2.15625 5.34455 2.15625H2.50781C2.1195 2.15625 1.80469 2.47106 1.80469 2.85938C1.80469 3.24769 2.1195 3.55781 2.50781 3.55781H3.53963C1.266 5.82759 0 8.86308 0 12C0 18.5972 5.40042 24 12 24C18.5972 24 24 18.5996 24 12C24 5.40281 18.5996 0 12 0Z"
    fill="#808191"
  />
<g opacity="0.4">
<path
      fill-rule="evenodd"
      clip-rule="evenodd"
      d="M12 4.26709C7.73555 4.26709 4.26562 7.73814 4.26562 12.0015C4.26562 16.2662 7.73695 19.7358 12 19.7358C16.2645 19.7358 19.7344 16.2648 19.7344 12.0015C19.7344 7.73673 16.263 4.26709 12 4.26709ZM12 18.2903C14.1356 18.2855 15.6128 17.6206 16.942 15.9491C17.9558 14.6741 18.2729 13.6303 18.2888 12.0015C18.3049 10.3604 18.0163 9.29009 17 8.00146C15.6701 6.3153 14.1474 5.69575 12 5.71262C9.86448 5.7294 8.38715 6.38228 7.05802 8.05384C6.04422 9.32881 5.7271 10.3726 5.71116 12.0015C5.69509 13.6426 5.98367 14.7128 7 16.0015C8.32987 17.6876 10.3711 18.2939 12 18.2903Z"
      fill="#808191"
    />
</g>
<g opacity="0.4">
<path
      d="M13.9035 12.9076L12.7031 11.7073V9.18603C12.7031 8.79772 12.3883 8.48291 12 8.48291C11.6117 8.48291 11.2969 8.79772 11.2969 9.18603V11.9985C11.2969 12.185 11.371 12.3638 11.5028 12.4957L12.9091 13.9019C13.1836 14.1765 13.6289 14.1765 13.9035 13.9019C14.1781 13.6273 14.1781 13.1822 13.9035 12.9076Z"
      fill="#808191"
    />
</g>
</svg>
