<svg
  width="56"
  height="56"
  viewBox="0 0 56 56"
  fill="none"
  xmlns="http://www.w3.org/2000/svg"
>
<path
    d="M28 16C27.6117 16 27.2969 16.3148 27.2969 16.7031C27.2969 17.0914 27.6117 17.4062 28 17.4062C33.8414 17.4062 38.5938 22.1586 38.5938 28C38.5938 33.8414 33.8414 38.5938 28 38.5938C22.1586 38.5938 17.4062 33.8414 17.4062 28C17.4062 25.1708 18.5955 22.4391 20.6414 20.4514V21.6719C20.6414 22.0602 20.9562 22.375 21.3445 22.375C21.7329 22.375 22.0469 22.0602 22.0469 21.6719V18.8594C22.0469 18.4711 21.7329 18.1562 21.3445 18.1562H18.5078C18.1195 18.1562 17.8047 18.4711 17.8047 18.8594C17.8047 19.2477 18.1195 19.5578 18.5078 19.5578H19.5396C17.266 21.8276 16 24.8631 16 28C16 34.5972 21.4004 40 28 40C34.5972 40 40 34.5996 40 28C40 21.4028 34.5996 16 28 16Z"
    fill="#808191"
  />
<g opacity="0.4">
<path
      fill-rule="evenodd"
      clip-rule="evenodd"
      d="M28 20.2671C23.7355 20.2671 20.2656 23.7381 20.2656 28.0015C20.2656 32.2662 23.737 35.7358 28 35.7358C32.2645 35.7358 35.7344 32.2648 35.7344 28.0015C35.7344 23.7367 32.263 20.2671 28 20.2671ZM28 34.2903C30.1356 34.2855 31.6128 33.6206 32.942 31.9491C33.9558 30.6741 34.2729 29.6303 34.2888 28.0015C34.3049 26.3604 34.0163 25.2901 33 24.0015C31.6701 22.3153 30.1474 21.6957 28 21.7126C25.8645 21.7294 24.3872 22.3823 23.058 24.0538C22.0442 25.3288 21.7271 26.3726 21.7112 28.0015C21.6951 29.6426 21.9837 30.7128 23 32.0015C24.3299 33.6876 26.3711 34.2939 28 34.2903Z"
      fill="#808191"
    />
</g>
<g opacity="0.4">
<path
      d="M29.9035 28.9076L28.7031 27.7073V25.186C28.7031 24.7977 28.3883 24.4829 28 24.4829C27.6117 24.4829 27.2969 24.7977 27.2969 25.186V27.9985C27.2969 28.185 27.371 28.3638 27.5028 28.4957L28.9091 29.9019C29.1836 30.1765 29.6289 30.1765 29.9035 29.9019C30.1781 29.6273 30.1781 29.1822 29.9035 28.9076Z"
      fill="#808191"
    />
</g>
</svg>
