<svg width="25" height="24" viewBox="0 0 25 24" fill="none" xmlns="http://www.w3.org/2000/svg">
<g clip-path="url(#clip0)">
<path d="M17.0937 12.5625L22.7187 8.34375C22.8958 8.21095 23 8.00259 23 7.78125C23 7.5599 22.8958 7.35154 22.7187 7.21875L17.0937 3C16.8807 2.8402 16.5957 2.81451 16.3574 2.93362C16.1192 3.05273 15.9687 3.29615 15.9687 3.5625L15.9687 5.67187L2.51562 5.67187C2.12731 5.67187 1.8125 5.98668 1.8125 6.37499L1.8125 9.18749C1.8125 9.57581 2.12731 9.89062 2.51562 9.89062L15.9687 9.89062L15.9687 12C15.9687 12.2663 16.1192 12.5098 16.3574 12.6289C16.5957 12.748 16.8807 12.7223 17.0937 12.5625ZM17.375 9.1875C17.375 8.79918 17.0602 8.48437 16.6719 8.48437L3.21875 8.48437L3.21875 7.07812L16.6719 7.07812C17.0602 7.07812 17.375 6.76331 17.375 6.375L17.375 4.96875L18.6406 5.91796L21.125 7.78125L17.375 10.5937L17.375 9.1875Z" fill="#EF8C03"/>
<path d="M8.64256 23.0664C8.88078 22.9473 9.03125 22.7038 9.03125 22.4375L9.03125 20.3281L22.4844 20.3281C22.8727 20.3281 23.1875 20.0133 23.1875 19.625L23.1875 16.8125C23.1875 16.4242 22.8727 16.1094 22.4844 16.1094L9.03125 16.1094L9.03125 14C9.03125 13.7337 8.88078 13.4902 8.64256 13.3711C8.40434 13.252 8.1193 13.2777 7.90625 13.4375L2.28125 17.6562C2.1042 17.789 2 17.9974 2 18.2187C2 18.4401 2.1042 18.6484 2.28125 18.7812L7.90625 23C8.1193 23.1598 8.40434 23.1855 8.64256 23.0664ZM3.875 18.2187L6.35937 16.3555L7.625 15.4062L7.625 16.8125C7.625 17.2008 7.93981 17.5156 8.32812 17.5156L21.7812 17.5156L21.7812 18.9219L8.32812 18.9219C7.93981 18.9219 7.625 19.2367 7.625 19.625L7.625 21.0312L3.875 18.2187Z" fill="#EF8C03"/>
</g>
<defs>
<clipPath id="clip0">
<rect width="24" height="24" fill="white" transform="translate(24) rotate(90)"/>
</clipPath>
</defs>
</svg>
