<svg
  width="56"
  height="56"
  viewBox="0 0 56 56"
  fill="none"
  xmlns="http://www.w3.org/2000/svg"
>
<g clip-path="url(#clip0)">
<path
      d="M33.0937 28.5625L38.7187 24.3437C38.8958 24.2109 39 24.0026 39 23.7812C39 23.5599 38.8958 23.3515 38.7187 23.2187L33.0937 19C32.8807 18.8402 32.5957 18.8145 32.3574 18.9336C32.1192 19.0527 31.9687 19.2962 31.9687 19.5625L31.9687 21.6719L18.5156 21.6719C18.1273 21.6719 17.8125 21.9867 17.8125 22.375L17.8125 25.1875C17.8125 25.5758 18.1273 25.8906 18.5156 25.8906L31.9687 25.8906L31.9687 28C31.9687 28.2663 32.1192 28.5098 32.3574 28.6289C32.5957 28.748 32.8807 28.7223 33.0937 28.5625ZM33.375 25.1875C33.375 24.7992 33.0602 24.4844 32.6719 24.4844L19.2187 24.4844L19.2187 23.0781L32.6719 23.0781C33.0602 23.0781 33.375 22.7633 33.375 22.375L33.375 20.9687L34.6406 21.918L37.125 23.7812L33.375 26.5937L33.375 25.1875Z"
      fill="#808191"
    />
<g opacity="0.4">
<path
        d="M24.6426 39.0664C24.8808 38.9473 25.0312 38.7038 25.0312 38.4375L25.0312 36.3281L38.4844 36.3281C38.8727 36.3281 39.1875 36.0133 39.1875 35.625L39.1875 32.8125C39.1875 32.4242 38.8727 32.1094 38.4844 32.1094L25.0312 32.1094L25.0312 30C25.0312 29.7337 24.8808 29.4902 24.6426 29.3711C24.4043 29.252 24.1193 29.2777 23.9062 29.4375L18.2812 33.6562C18.1042 33.789 18 33.9974 18 34.2187C18 34.4401 18.1042 34.6484 18.2812 34.7812L23.9062 39C24.1193 39.1598 24.4043 39.1855 24.6426 39.0664ZM19.875 34.2187L22.3594 32.3555L23.625 31.4062L23.625 32.8125C23.625 33.2008 23.9398 33.5156 24.3281 33.5156L37.7812 33.5156L37.7812 34.9219L24.3281 34.9219C23.9398 34.9219 23.625 35.2367 23.625 35.625L23.625 37.0312L19.875 34.2187Z"
        fill="#808191"
      />
</g>
</g>
<defs>
<clipPath id="clip0">
<rect
        width="24"
        height="24"
        fill="white"
        transform="translate(39 16) rotate(90)"
      />
</clipPath>
</defs>
</svg>
