<svg
  width="24"
  height="24"
  viewBox="0 0 24 24"
  fill="none"
  xmlns="http://www.w3.org/2000/svg"
>
<g clip-path="url(#clip0)">
<path
      d="M18.1096 12.5623L23.7347 8.34354C24.0891 8.07851 24.0891 7.48385 23.7347 7.21882L18.1096 3.00002C17.6482 2.6532 16.9849 2.98338 16.9849 3.56238L16.9849 5.67181L3.62541 5.6718C3.23677 5.6718 2.92229 5.98629 2.92229 6.37493L2.92229 9.18743C2.92229 9.57607 3.23677 9.88118 3.62541 9.88118L16.9849 9.88118L16.9849 11.9999C16.9849 12.5794 17.6487 12.9088 18.1096 12.5623Z"
      fill="#EF8C03"
    />
<path
      d="M10.0301 22.4377L10.0301 20.3189L23.3896 20.3189C23.7783 20.3189 24.0928 20.0137 24.0928 19.6251L24.0928 16.8126C24.0928 16.4239 23.7783 16.1094 23.3896 16.1094L10.0301 16.1094L10.0301 14C10.0301 13.421 9.36685 13.0908 8.90542 13.4377L3.28032 17.6565C2.90504 17.9372 2.9056 18.5009 3.28032 18.7812L8.90537 23C9.36634 23.3465 10.0301 23.0171 10.0301 22.4377Z"
      fill="#EF8C03"
    />
</g>
<defs>
<clipPath id="clip0">
<rect
        width="24"
        height="24"
        fill="white"
        transform="translate(24) rotate(90)"
      />
</clipPath>
</defs>
</svg>
