<svg
  width="25"
  height="24"
  viewBox="0 0 25 24"
  fill="none"
  xmlns="http://www.w3.org/2000/svg"
>
<g clip-path="url(#clip0)">
<path
      d="M18.0937 12.5625L23.7187 8.34375C23.8958 8.21095 24 8.00259 24 7.78125C24 7.5599 23.8958 7.35154 23.7187 7.21875L18.0937 3C17.8807 2.8402 17.5957 2.81451 17.3574 2.93362C17.1192 3.05273 16.9687 3.29615 16.9687 3.5625L16.9687 5.67187L3.51562 5.67187C3.12731 5.67187 2.8125 5.98668 2.8125 6.37499L2.8125 9.18749C2.8125 9.57581 3.12731 9.89062 3.51562 9.89062L16.9687 9.89062L16.9687 12C16.9687 12.2663 17.1192 12.5098 17.3574 12.6289C17.5957 12.748 17.8807 12.7223 18.0937 12.5625ZM18.375 9.1875C18.375 8.79918 18.0602 8.48437 17.6719 8.48437L4.21875 8.48437L4.21875 7.07812L17.6719 7.07812C18.0602 7.07812 18.375 6.76331 18.375 6.375L18.375 4.96875L19.6406 5.91796L22.125 7.78125L18.375 10.5937L18.375 9.1875Z"
      fill="#808191"
    />
<g opacity="0.4">
<path
        d="M9.64256 23.0664C9.88078 22.9473 10.0312 22.7038 10.0312 22.4375L10.0312 20.3281L23.4844 20.3281C23.8727 20.3281 24.1875 20.0133 24.1875 19.625L24.1875 16.8125C24.1875 16.4242 23.8727 16.1094 23.4844 16.1094L10.0312 16.1094L10.0312 14C10.0312 13.7337 9.88078 13.4902 9.64256 13.3711C9.40434 13.252 9.1193 13.2777 8.90625 13.4375L3.28125 17.6562C3.1042 17.789 3 17.9974 3 18.2187C3 18.4401 3.1042 18.6484 3.28125 18.7812L8.90625 23C9.1193 23.1598 9.40434 23.1855 9.64256 23.0664ZM4.875 18.2187L7.35937 16.3555L8.625 15.4062L8.625 16.8125C8.625 17.2008 8.93981 17.5156 9.32812 17.5156L22.7812 17.5156L22.7812 18.9219L9.32812 18.9219C8.93981 18.9219 8.625 19.2367 8.625 19.625L8.625 21.0312L4.875 18.2187Z"
        fill="#808191"
      />
</g>
</g>
<defs>
<clipPath id="clip0">
<rect
        width="24"
        height="24"
        fill="white"
        transform="translate(24) rotate(90)"
      />
</clipPath>
</defs>
</svg>
