<svg width="27" height="24" viewBox="0 0 27 24" fill="none" xmlns="http://www.w3.org/2000/svg">
<path d="M16.9046 5.92558C16.8635 6.25439 17.0968 6.55427 17.4256 6.59537C17.7544 6.63647 18.0542 6.40323 18.0953 6.07442L16.9046 5.92558ZM13.5 6L14.1 6C14.1 5.97512 14.0984 5.95027 14.0953 5.92558L13.5 6ZM12.9 16C12.9 16.3314 13.1686 16.6 13.5 16.6C13.8313 16.6 14.1 16.3314 14.1 16L12.9 16ZM23.9046 5.92558C23.8635 6.25439 24.0968 6.55427 24.4256 6.59537C24.7544 6.63647 25.0542 6.40323 25.0953 6.07442L23.9046 5.92558ZM20.5 6L21.1 6C21.1 5.97512 21.0984 5.95027 21.0953 5.92558L20.5 6ZM14 8.4C13.6686 8.4 13.4 8.66863 13.4 9C13.4 9.33137 13.6686 9.6 14 9.6V8.4ZM20 9.6C20.3314 9.6 20.6 9.33137 20.6 9C20.6 8.66863 20.3314 8.4 20 8.4V9.6ZM13.5 12.4C13.1686 12.4 12.9 12.6686 12.9 13C12.9 13.3314 13.1686 13.6 13.5 13.6V12.4ZM1.69535 15.4337C1.38204 15.3258 1.04058 15.4923 0.932693 15.8056C0.824802 16.1189 0.991332 16.4604 1.30465 16.5683L1.69535 15.4337ZM6 17.001L5.97672 17.6005L5.97672 17.6005L6 17.001ZM11.5 16.001L11.4895 16.6009L11.4895 16.6009L11.5 16.001ZM16.5 17.001L16.4715 16.4016L16.4715 16.4016L16.5 17.001ZM24.5 17.001L24.5285 16.4016L24.5285 16.4016L24.5 17.001ZM25.5183 17.6007C25.8495 17.5906 26.1098 17.3139 26.0997 16.9827C26.0896 16.6515 25.813 16.3911 25.4817 16.4012L25.5183 17.6007ZM1.69535 19.4337C1.38204 19.3258 1.04058 19.4923 0.932693 19.8056C0.824802 20.1189 0.991331 20.4604 1.30465 20.5683L1.69535 19.4337ZM6 21.001L6.02328 20.4014L6.02328 20.4014L6 21.001ZM11.5 20.001L11.4895 20.6009L11.4895 20.6009L11.5 20.001ZM16.5 21.001L16.5285 21.6003L16.5285 21.6003L16.5 21.001ZM24.5 21.001L24.5285 20.4016L24.5285 20.4016L24.5 21.001ZM25.5183 21.6007C25.8495 21.5906 26.1098 21.3139 26.0997 20.9827C26.0896 20.6515 25.813 20.3911 25.4817 20.4012L25.5183 21.6007ZM17.5 6C18.0953 6.07442 18.0954 6.07422 18.0954 6.07401C18.0954 6.07392 18.0954 6.0737 18.0955 6.07352C18.0955 6.07315 18.0956 6.07273 18.0956 6.07225C18.0957 6.07128 18.0959 6.07006 18.0961 6.06861C18.0964 6.0657 18.0969 6.06183 18.0974 6.05702C18.0985 6.04742 18.1 6.03407 18.1018 6.01724C18.1053 5.98359 18.1099 5.9359 18.1147 5.87618C18.1242 5.7569 18.1347 5.58865 18.1389 5.38749C18.1472 4.98871 18.1312 4.44417 18.0272 3.88943C17.9247 3.34256 17.7268 2.73154 17.3328 2.24665C16.9183 1.73642 16.312 1.4 15.5 1.4V2.6C15.938 2.6 16.2067 2.76358 16.4015 3.00335C16.6169 3.26846 16.7628 3.65744 16.8477 4.11057C16.9312 4.55583 16.9465 5.01129 16.9392 5.36251C16.9355 5.53635 16.9265 5.6806 16.9185 5.78007C16.9145 5.82972 16.9108 5.86798 16.9082 5.89292C16.9069 5.90538 16.9059 5.9145 16.9053 5.92003C16.9049 5.92279 16.9047 5.92466 16.9046 5.92559C16.9046 5.92606 16.9045 5.9263 16.9045 5.9263C16.9045 5.9263 16.9045 5.92624 16.9045 5.92612C16.9046 5.92606 16.9046 5.92592 16.9046 5.9259C16.9046 5.92575 16.9046 5.92558 17.5 6ZM15.5 1.4C14.688 1.4 14.0817 1.73642 13.6671 2.24665C13.2732 2.73154 13.0753 3.34256 12.9728 3.88943C12.8687 4.44417 12.8527 4.98871 12.8611 5.38749C12.8652 5.58865 12.8757 5.7569 12.8853 5.87618C12.8901 5.9359 12.8947 5.98359 12.8982 6.01724C12.9 6.03407 12.9014 6.04742 12.9025 6.05702C12.9031 6.06183 12.9036 6.0657 12.9039 6.06861C12.9041 6.07006 12.9042 6.07128 12.9043 6.07225C12.9044 6.07273 12.9045 6.07315 12.9045 6.07352C12.9045 6.0737 12.9046 6.07392 12.9046 6.07401C12.9046 6.07422 12.9046 6.07442 13.5 6C14.0953 5.92558 14.0954 5.92575 14.0954 5.9259C14.0954 5.92592 14.0954 5.92606 14.0954 5.92612C14.0954 5.92624 14.0954 5.9263 14.0954 5.9263C14.0954 5.9263 14.0954 5.92606 14.0954 5.92559C14.0952 5.92466 14.095 5.92279 14.0947 5.92003C14.0941 5.9145 14.093 5.90538 14.0917 5.89292C14.0891 5.86798 14.0854 5.82972 14.0815 5.78007C14.0735 5.6806 14.0644 5.53635 14.0608 5.36251C14.0535 5.01129 14.0687 4.55583 14.1522 4.11057C14.2372 3.65744 14.3831 3.26846 14.5985 3.00335C14.7933 2.76358 15.062 2.6 15.5 2.6V1.4ZM12.9 6L12.9 16L14.1 16L14.1 6L12.9 6ZM24.5 6C25.0953 6.07442 25.0954 6.07422 25.0954 6.07401C25.0954 6.07392 25.0954 6.0737 25.0955 6.07352C25.0955 6.07316 25.0956 6.07273 25.0956 6.07225C25.0957 6.07128 25.0959 6.07006 25.0961 6.06861C25.0964 6.0657 25.0969 6.06183 25.0974 6.05702C25.0985 6.04742 25.1 6.03407 25.1018 6.01724C25.1053 5.98359 25.1099 5.93591 25.1147 5.87618C25.1242 5.7569 25.1347 5.58865 25.1389 5.3875C25.1472 4.98871 25.1312 4.44417 25.0272 3.88943C24.9247 3.34256 24.7268 2.73154 24.3328 2.24664C23.9183 1.73642 23.312 1.4 22.5 1.4V2.6C22.938 2.6 23.2067 2.76358 23.4015 3.00336C23.6169 3.26846 23.7628 3.65744 23.8478 4.11057C23.9312 4.55583 23.9465 5.01129 23.9392 5.3625C23.9356 5.53635 23.9265 5.6806 23.9185 5.78007C23.9145 5.82972 23.9108 5.86798 23.9082 5.89292C23.9069 5.90538 23.9059 5.9145 23.9053 5.92003C23.9049 5.92279 23.9047 5.92466 23.9046 5.92559C23.9046 5.92606 23.9045 5.9263 23.9045 5.9263C23.9045 5.9263 23.9045 5.92624 23.9045 5.92612C23.9046 5.92606 23.9046 5.92592 23.9046 5.92589C23.9046 5.92575 23.9046 5.92558 24.5 6ZM22.5 1.4C21.688 1.4 21.0817 1.73642 20.6671 2.24664C20.2732 2.73154 20.0753 3.34256 19.9728 3.88943C19.8687 4.44417 19.8527 4.98871 19.8611 5.3875C19.8652 5.58865 19.8757 5.7569 19.8853 5.87618C19.8901 5.93591 19.8947 5.98359 19.8982 6.01724C19.9 6.03407 19.9014 6.04742 19.9025 6.05702C19.9031 6.06183 19.9036 6.0657 19.9039 6.06861C19.9041 6.07006 19.9042 6.07128 19.9043 6.07225C19.9044 6.07273 19.9045 6.07316 19.9045 6.07352C19.9045 6.0737 19.9046 6.07392 19.9046 6.07401C19.9046 6.07422 19.9046 6.07442 20.5 6C21.0953 5.92558 21.0954 5.92575 21.0954 5.92589C21.0954 5.92592 21.0954 5.92606 21.0954 5.92612C21.0954 5.92624 21.0954 5.9263 21.0954 5.9263C21.0954 5.9263 21.0954 5.92606 21.0954 5.92559C21.0952 5.92466 21.095 5.92279 21.0947 5.92003C21.0941 5.9145 21.093 5.90538 21.0917 5.89292C21.0891 5.86798 21.0854 5.82972 21.0815 5.78007C21.0735 5.6806 21.0644 5.53635 21.0608 5.3625C21.0535 5.01129 21.0687 4.55583 21.1522 4.11057C21.2372 3.65744 21.3831 3.26846 21.5985 3.00336C21.7933 2.76358 22.062 2.6 22.5 2.6V1.4ZM19.9 6L19.9 13L21.1 13L21.1 6L19.9 6ZM19.9 13L19.9 16L21.1 16L21.1 13L19.9 13ZM14 9.6H20V8.4H14V9.6ZM13.5 13.6H20.5V12.4H13.5V13.6ZM1.5 16.001C1.30465 16.5683 1.30471 16.5683 1.30478 16.5683C1.30482 16.5683 1.3049 16.5684 1.30497 16.5684C1.30512 16.5684 1.30531 16.5685 1.30554 16.5686C1.30601 16.5687 1.30664 16.5689 1.30743 16.5692C1.30901 16.5698 1.31124 16.5705 1.3141 16.5715C1.31983 16.5735 1.3281 16.5763 1.3388 16.5799C1.36019 16.5871 1.39133 16.5975 1.4313 16.6108C1.51125 16.6372 1.62667 16.6747 1.7705 16.7199C2.05789 16.81 2.46006 16.931 2.92009 17.0543C3.82774 17.2976 5.00674 17.5628 5.97672 17.6005L6.02328 16.4014C5.19439 16.3692 4.12339 16.1345 3.23076 15.8952C2.79065 15.7773 2.4051 15.6613 2.12982 15.5749C1.99231 15.5318 1.88265 15.4961 1.80785 15.4714C1.77046 15.459 1.7418 15.4494 1.72275 15.443C1.71323 15.4397 1.70611 15.4373 1.70151 15.4358C1.69921 15.435 1.69753 15.4344 1.6965 15.434C1.69599 15.4339 1.69563 15.4337 1.69544 15.4337C1.69535 15.4336 1.69529 15.4336 1.69527 15.4336C1.69527 15.4336 1.69529 15.4336 1.69528 15.4336C1.69531 15.4336 1.69535 15.4337 1.5 16.001ZM5.97672 17.6005C7.18228 17.6473 8.10019 17.3561 8.93234 17.0898C9.76565 16.8232 10.5087 16.5837 11.4895 16.6009L11.5105 15.401C10.3085 15.38 9.39231 15.6828 8.56668 15.9469C7.73988 16.2114 6.99917 16.4393 6.02328 16.4014L5.97672 17.6005ZM11.4895 16.6009C12.3767 16.6164 13.0433 16.8561 13.8065 17.1173C14.568 17.3778 15.4126 17.6534 16.5285 17.6003L16.4715 16.4016C15.5984 16.4432 14.9384 16.2363 14.195 15.9819C13.4532 15.7281 12.6143 15.4204 11.5105 15.401L11.4895 16.6009ZM16.5285 17.6003C17.4477 17.5565 18.1338 17.2657 18.7234 17.0283C19.3151 16.7901 19.8198 16.6 20.5 16.6V15.4C19.57 15.4 18.8788 15.6721 18.2752 15.9152C17.6694 16.1591 17.1606 16.3688 16.4715 16.4016L16.5285 17.6003ZM20.5 16.6C21.1802 16.6 21.6848 16.7901 22.2766 17.0283C22.8662 17.2657 23.5523 17.5565 24.4715 17.6003L24.5285 16.4016C23.8394 16.3688 23.3306 16.1591 22.7248 15.9152C22.1211 15.6721 21.43 15.4 20.5 15.4V16.6ZM24.4715 17.6003C24.6851 17.6105 24.9498 17.6102 25.1532 17.6079C25.2566 17.6067 25.3474 17.6049 25.4124 17.6034C25.4449 17.6027 25.4711 17.602 25.4893 17.6015C25.4983 17.6013 25.5054 17.6011 25.5103 17.6009C25.5128 17.6008 25.5147 17.6008 25.516 17.6007C25.5167 17.6007 25.5172 17.6007 25.5176 17.6007C25.5178 17.6007 25.5179 17.6007 25.518 17.6007C25.5181 17.6007 25.5181 17.6007 25.5182 17.6007C25.5182 17.6007 25.5182 17.6007 25.5182 17.6007C25.5182 17.6007 25.5183 17.6007 25.5 17.001C25.4817 16.4012 25.4817 16.4012 25.4818 16.4012C25.4818 16.4012 25.4818 16.4012 25.4818 16.4012C25.4818 16.4012 25.4818 16.4012 25.4817 16.4012C25.4817 16.4012 25.4816 16.4012 25.4815 16.4012C25.4813 16.4012 25.481 16.4013 25.4805 16.4013C25.4794 16.4013 25.4779 16.4013 25.4758 16.4014C25.4715 16.4015 25.4652 16.4017 25.4568 16.4019C25.4401 16.4024 25.4156 16.403 25.3848 16.4037C25.3233 16.4051 25.2372 16.4068 25.1394 16.408C24.9403 16.4103 24.705 16.41 24.5285 16.4016L24.4715 17.6003ZM1.5 20.001C1.30465 20.5683 1.30471 20.5683 1.30478 20.5683C1.30482 20.5683 1.3049 20.5684 1.30497 20.5684C1.30512 20.5684 1.30531 20.5685 1.30554 20.5686C1.30601 20.5687 1.30664 20.5689 1.30743 20.5692C1.30901 20.5698 1.31123 20.5705 1.3141 20.5715C1.31983 20.5735 1.3281 20.5763 1.3388 20.5799C1.36019 20.5871 1.39132 20.5975 1.4313 20.6108C1.51125 20.6372 1.62667 20.6747 1.7705 20.7199C2.05789 20.81 2.46006 20.931 2.92009 21.0543C3.82774 21.2976 5.00674 21.5628 5.97672 21.6005L6.02328 20.4014C5.19439 20.3692 4.12339 20.1345 3.23076 19.8952C2.79065 19.7773 2.4051 19.6613 2.12982 19.5749C1.99231 19.5318 1.88265 19.4961 1.80785 19.4714C1.77046 19.459 1.7418 19.4494 1.72275 19.443C1.71323 19.4397 1.70611 19.4373 1.70151 19.4358C1.69921 19.435 1.69753 19.4344 1.6965 19.434C1.69599 19.4339 1.69563 19.4337 1.69544 19.4337C1.69535 19.4336 1.69529 19.4336 1.69528 19.4336C1.69527 19.4336 1.69529 19.4336 1.69528 19.4336C1.69531 19.4336 1.69535 19.4337 1.5 20.001ZM5.97672 21.6005C7.18228 21.6473 8.10019 21.3561 8.93234 21.0898C9.76565 20.8232 10.5087 20.5837 11.4895 20.6009L11.5105 19.401C10.3085 19.38 9.39231 19.6828 8.56668 19.9469C7.73988 20.2114 6.99917 20.4393 6.02328 20.4014L5.97672 21.6005ZM11.4895 20.6009C12.3767 20.6164 13.0433 20.8561 13.8065 21.1173C14.568 21.3778 15.4126 21.6534 16.5285 21.6003L16.4715 20.4016C15.5984 20.4432 14.9384 20.2363 14.195 19.9819C13.4532 19.7281 12.6143 19.4204 11.5105 19.401L11.4895 20.6009ZM16.5285 21.6003C17.4476 21.5565 18.1336 21.2661 18.7232 21.0289C19.3149 20.7909 19.8197 20.601 20.5 20.601V19.401C19.5701 19.401 18.8791 19.6728 18.2754 19.9156C17.6696 20.1593 17.1607 20.3688 16.4715 20.4016L16.5285 21.6003ZM20.5 20.601C21.1803 20.601 21.6851 20.7909 22.2768 21.0289C22.8664 21.2661 23.5524 21.5565 24.4715 21.6003L24.5285 20.4016C23.8393 20.3688 23.3304 20.1593 22.7246 19.9156C22.1209 19.6728 21.4299 19.401 20.5 19.401V20.601ZM24.4715 21.6003C24.6851 21.6105 24.9498 21.6102 25.1532 21.6079C25.2566 21.6067 25.3474 21.6049 25.4124 21.6034C25.4449 21.6027 25.4711 21.602 25.4893 21.6015C25.4983 21.6013 25.5054 21.6011 25.5103 21.6009C25.5128 21.6008 25.5147 21.6008 25.516 21.6007C25.5167 21.6007 25.5172 21.6007 25.5176 21.6007C25.5178 21.6007 25.5179 21.6007 25.518 21.6007C25.5181 21.6007 25.5181 21.6007 25.5182 21.6007C25.5182 21.6007 25.5182 21.6007 25.5182 21.6007C25.5182 21.6007 25.5183 21.6007 25.5 21.001C25.4817 20.4012 25.4817 20.4012 25.4818 20.4012C25.4818 20.4012 25.4818 20.4012 25.4818 20.4012C25.4818 20.4012 25.4818 20.4012 25.4817 20.4012C25.4817 20.4012 25.4816 20.4012 25.4815 20.4012C25.4813 20.4012 25.481 20.4013 25.4805 20.4013C25.4794 20.4013 25.4779 20.4013 25.4758 20.4014C25.4715 20.4015 25.4652 20.4017 25.4568 20.4019C25.4401 20.4024 25.4156 20.403 25.3848 20.4037C25.3233 20.4051 25.2372 20.4068 25.1394 20.408C24.9403 20.4103 24.705 20.41 24.5285 20.4016L24.4715 21.6003Z" fill="#EF8C03"/>
<path d="M1 15.9984V19.9984C1 19.9984 4.50871 20.9984 6.5 20.9984C8.49129 20.9984 9.51096 19.9037 11.5 19.9984C13.1084 20.075 13.8898 20.9984 15.5 20.9984C17.1102 20.9984 18.8898 19.9984 20.5 19.9984C22.1102 19.9984 22 20.8784 23.5 20.9984C24.2786 21.0607 26 20.9984 26 20.9984V16.9984C26 16.9984 24.275 17.0953 23.5 16.9984C22.2746 16.8452 21.7313 16.0931 20.5 15.9984C18.8946 15.8749 18.1084 16.9218 16.5 16.9984C14.511 17.0931 13.4913 15.9984 11.5 15.9984C9.50871 15.9984 8.49129 16.9984 6.5 16.9984C4.50871 16.9984 1 15.9984 1 15.9984Z" fill="#EF8C03"/>
</svg>
