<svg width="26" height="24" viewBox="0 0 26 24" fill="none" xmlns="http://www.w3.org/2000/svg">
<path d="M16.4046 5.92558C16.3635 6.25439 16.5968 6.55427 16.9256 6.59537C17.2544 6.63647 17.5542 6.40323 17.5953 6.07442L16.4046 5.92558ZM13 6L13.6 6C13.6 5.97512 13.5984 5.95027 13.5953 5.92558L13 6ZM12.4 16C12.4 16.3314 12.6686 16.6 13 16.6C13.3313 16.6 13.6 16.3314 13.6 16L12.4 16ZM23.4046 5.92558C23.3635 6.25439 23.5968 6.55427 23.9256 6.59537C24.2544 6.63647 24.5542 6.40323 24.5953 6.07442L23.4046 5.92558ZM20 6L20.6 6C20.6 5.97512 20.5984 5.95027 20.5953 5.92558L20 6ZM1.19535 15.4337C0.882039 15.3258 0.540584 15.4923 0.432693 15.8056C0.324802 16.1189 0.491331 16.4604 0.804646 16.5683L1.19535 15.4337ZM5.5 17.001L5.47672 17.6005L5.5 17.001ZM11 16.001L10.9895 16.6009L11 16.001ZM16 17.001L15.9715 16.4016L16 17.001ZM24 17.001L24.0285 16.4016L24.0285 16.4016L24 17.001ZM25.0183 17.6007C25.3495 17.5906 25.6098 17.3139 25.5997 16.9827C25.5896 16.6515 25.313 16.3911 24.9817 16.4012L25.0183 17.6007ZM1.19535 19.4337C0.882039 19.3258 0.540584 19.4923 0.432693 19.8056C0.324802 20.1189 0.491331 20.4604 0.804646 20.5683L1.19535 19.4337ZM5.5 21.001L5.47672 21.6005L5.5 21.001ZM11 20.001L10.9895 20.6009L11 20.001ZM16 21.001L15.9715 20.4016L16 21.001ZM24 21.001L24.0285 20.4016L24.0285 20.4016L24 21.001ZM25.0183 21.6007C25.3495 21.5906 25.6098 21.3139 25.5997 20.9827C25.5896 20.6515 25.313 20.3911 24.9817 20.4012L25.0183 21.6007ZM17 6C17.5953 6.07442 17.5954 6.07422 17.5954 6.07401C17.5954 6.07392 17.5954 6.0737 17.5955 6.07352C17.5955 6.07315 17.5956 6.07273 17.5956 6.07225C17.5957 6.07128 17.5959 6.07006 17.5961 6.06861C17.5964 6.0657 17.5969 6.06183 17.5974 6.05702C17.5985 6.04742 17.6 6.03407 17.6018 6.01724C17.6053 5.98359 17.6099 5.9359 17.6147 5.87618C17.6242 5.7569 17.6347 5.58865 17.6389 5.38749C17.6472 4.98871 17.6312 4.44417 17.5272 3.88943C17.4247 3.34256 17.2268 2.73154 16.8328 2.24665C16.4183 1.73642 15.812 1.4 15 1.4V2.6C15.438 2.6 15.7067 2.76358 15.9015 3.00335C16.1169 3.26846 16.2628 3.65744 16.3477 4.11057C16.4312 4.55583 16.4465 5.01129 16.4392 5.36251C16.4355 5.53635 16.4265 5.6806 16.4185 5.78007C16.4145 5.82972 16.4108 5.86798 16.4082 5.89292C16.4069 5.90538 16.4059 5.9145 16.4053 5.92003C16.4049 5.92279 16.4047 5.92466 16.4046 5.92559C16.4046 5.92606 16.4045 5.9263 16.4045 5.9263C16.4045 5.9263 16.4045 5.92624 16.4045 5.92612C16.4046 5.92606 16.4046 5.92592 16.4046 5.9259C16.4046 5.92575 16.4046 5.92558 17 6ZM15 1.4C14.188 1.4 13.5817 1.73642 13.1671 2.24665C12.7732 2.73154 12.5753 3.34256 12.4728 3.88943C12.3687 4.44417 12.3527 4.98871 12.3611 5.38749C12.3652 5.58865 12.3757 5.7569 12.3853 5.87618C12.3901 5.9359 12.3947 5.98359 12.3982 6.01724C12.4 6.03407 12.4014 6.04742 12.4025 6.05702C12.4031 6.06183 12.4036 6.0657 12.4039 6.06861C12.4041 6.07006 12.4042 6.07128 12.4043 6.07225C12.4044 6.07273 12.4045 6.07315 12.4045 6.07352C12.4045 6.0737 12.4046 6.07392 12.4046 6.07401C12.4046 6.07422 12.4046 6.07442 13 6C13.5953 5.92558 13.5954 5.92575 13.5954 5.9259C13.5954 5.92592 13.5954 5.92606 13.5954 5.92612C13.5954 5.92624 13.5954 5.9263 13.5954 5.9263C13.5954 5.9263 13.5954 5.92606 13.5954 5.92559C13.5952 5.92466 13.595 5.92279 13.5947 5.92003C13.5941 5.9145 13.593 5.90538 13.5917 5.89292C13.5891 5.86798 13.5854 5.82972 13.5815 5.78007C13.5735 5.6806 13.5644 5.53635 13.5608 5.36251C13.5535 5.01129 13.5687 4.55583 13.6522 4.11057C13.7372 3.65744 13.8831 3.26846 14.0985 3.00335C14.2933 2.76358 14.562 2.6 15 2.6V1.4ZM12.4 6L12.4 16L13.6 16L13.6 6L12.4 6ZM24 6C24.5953 6.07442 24.5954 6.07422 24.5954 6.07401C24.5954 6.07392 24.5954 6.0737 24.5955 6.07352C24.5955 6.07316 24.5956 6.07273 24.5956 6.07225C24.5957 6.07128 24.5959 6.07006 24.5961 6.06861C24.5964 6.0657 24.5969 6.06183 24.5974 6.05702C24.5985 6.04742 24.6 6.03407 24.6018 6.01724C24.6053 5.98359 24.6099 5.9359 24.6147 5.87618C24.6242 5.7569 24.6347 5.58865 24.6389 5.3875C24.6472 4.98871 24.6312 4.44417 24.5272 3.88943C24.4247 3.34256 24.2268 2.73154 23.8328 2.24664C23.4183 1.73642 22.812 1.4 22 1.4V2.6C22.438 2.6 22.7067 2.76358 22.9015 3.00336C23.1169 3.26846 23.2628 3.65744 23.3478 4.11057C23.4312 4.55583 23.4465 5.01129 23.4392 5.3625C23.4356 5.53635 23.4265 5.6806 23.4185 5.78007C23.4145 5.82972 23.4108 5.86798 23.4082 5.89292C23.4069 5.90538 23.4059 5.9145 23.4053 5.92003C23.4049 5.92279 23.4047 5.92466 23.4046 5.92559C23.4046 5.92606 23.4045 5.9263 23.4045 5.9263C23.4045 5.9263 23.4045 5.92624 23.4045 5.92612C23.4046 5.92606 23.4046 5.92592 23.4046 5.92589C23.4046 5.92575 23.4046 5.92558 24 6ZM22 1.4C21.188 1.4 20.5817 1.73642 20.1671 2.24664C19.7732 2.73154 19.5753 3.34256 19.4728 3.88943C19.3687 4.44417 19.3527 4.98871 19.3611 5.3875C19.3652 5.58865 19.3757 5.7569 19.3853 5.87618C19.3901 5.9359 19.3947 5.98359 19.3982 6.01724C19.4 6.03407 19.4014 6.04742 19.4025 6.05702C19.4031 6.06183 19.4036 6.0657 19.4039 6.06861C19.4041 6.07006 19.4042 6.07128 19.4043 6.07225C19.4044 6.07273 19.4045 6.07316 19.4045 6.07352C19.4045 6.0737 19.4046 6.07392 19.4046 6.07401C19.4046 6.07422 19.4046 6.07442 20 6C20.5953 5.92558 20.5954 5.92575 20.5954 5.92589C20.5954 5.92592 20.5954 5.92606 20.5954 5.92612C20.5954 5.92624 20.5954 5.9263 20.5954 5.9263C20.5954 5.9263 20.5954 5.92606 20.5954 5.92559C20.5952 5.92466 20.595 5.92279 20.5947 5.92003C20.5941 5.9145 20.593 5.90538 20.5917 5.89292C20.5891 5.86798 20.5854 5.82972 20.5815 5.78007C20.5735 5.6806 20.5644 5.53635 20.5608 5.3625C20.5535 5.01129 20.5687 4.55583 20.6522 4.11057C20.7372 3.65744 20.8831 3.26846 21.0985 3.00336C21.2933 2.76358 21.562 2.6 22 2.6V1.4ZM19.4 6L19.4 16L20.6 16L20.6 6L19.4 6ZM13.5 9.6H19.5V8.4H13.5V9.6ZM13 13.6H20V12.4H13V13.6ZM1 16.001C0.804646 16.5683 0.804707 16.5683 0.804778 16.5683C0.804816 16.5683 0.804897 16.5684 0.804972 16.5684C0.805122 16.5684 0.805313 16.5685 0.805545 16.5686C0.806008 16.5687 0.806636 16.5689 0.807426 16.5692C0.809006 16.5698 0.811235 16.5705 0.814099 16.5715C0.819827 16.5735 0.828096 16.5763 0.838796 16.5799C0.860194 16.5871 0.891325 16.5975 0.931305 16.6108C1.01125 16.6372 1.12667 16.6747 1.2705 16.7199C1.55789 16.81 1.96006 16.931 2.42009 17.0543C3.32774 17.2976 4.50674 17.5628 5.47672 17.6005L5.52328 16.4014C4.69439 16.3692 3.62339 16.1345 2.73076 15.8952C2.29065 15.7773 1.9051 15.6613 1.62982 15.5749C1.49231 15.5318 1.38265 15.4961 1.30785 15.4714C1.27046 15.459 1.2418 15.4494 1.22275 15.443C1.21323 15.4397 1.20611 15.4373 1.20151 15.4358C1.19921 15.435 1.19753 15.4344 1.1965 15.434C1.19599 15.4339 1.19563 15.4337 1.19544 15.4337C1.19535 15.4336 1.19529 15.4336 1.19527 15.4336C1.19527 15.4336 1.19529 15.4336 1.19528 15.4336C1.19531 15.4336 1.19535 15.4337 1 16.001ZM5.47672 17.6005C6.68228 17.6473 7.60019 17.3561 8.43234 17.0898C9.26565 16.8232 10.0087 16.5837 10.9895 16.6009L11.0105 15.401C9.80855 15.38 8.89231 15.6828 8.06668 15.9469C7.23988 16.2114 6.49917 16.4393 5.52328 16.4014L5.47672 17.6005ZM10.9895 16.6009C11.8767 16.6164 12.5433 16.8561 13.3065 17.1173C14.068 17.3778 14.9126 17.6534 16.0285 17.6003L15.9715 16.4016C15.0984 16.4432 14.4384 16.2363 13.695 15.9819C12.9532 15.7281 12.1143 15.4204 11.0105 15.401L10.9895 16.6009ZM16.0285 17.6003C16.9477 17.5565 17.6338 17.2657 18.2234 17.0283C18.8151 16.7901 19.3198 16.6 20 16.6V15.4C19.07 15.4 18.3788 15.6721 17.7752 15.9152C17.1694 16.1591 16.6606 16.3688 15.9715 16.4016L16.0285 17.6003ZM20 16.6C20.6802 16.6 21.1848 16.7901 21.7766 17.0283C22.3662 17.2657 23.0523 17.5565 23.9715 17.6003L24.0285 16.4016C23.3394 16.3688 22.8306 16.1591 22.2248 15.9152C21.6211 15.6721 20.93 15.4 20 15.4V16.6ZM23.9715 17.6003C24.1851 17.6105 24.4498 17.6102 24.6532 17.6079C24.7566 17.6067 24.8474 17.6049 24.9124 17.6034C24.9449 17.6027 24.9711 17.602 24.9893 17.6015C24.9983 17.6013 25.0054 17.6011 25.0103 17.6009C25.0128 17.6008 25.0147 17.6008 25.016 17.6007C25.0167 17.6007 25.0172 17.6007 25.0176 17.6007C25.0178 17.6007 25.0179 17.6007 25.018 17.6007C25.0181 17.6007 25.0181 17.6007 25.0182 17.6007C25.0182 17.6007 25.0182 17.6007 25.0182 17.6007C25.0182 17.6007 25.0183 17.6007 25 17.001C24.9817 16.4012 24.9817 16.4012 24.9818 16.4012C24.9818 16.4012 24.9818 16.4012 24.9818 16.4012C24.9818 16.4012 24.9818 16.4012 24.9817 16.4012C24.9817 16.4012 24.9816 16.4012 24.9815 16.4012C24.9813 16.4012 24.981 16.4013 24.9805 16.4013C24.9794 16.4013 24.9779 16.4013 24.9758 16.4014C24.9715 16.4015 24.9652 16.4017 24.9568 16.4019C24.9401 16.4024 24.9156 16.403 24.8848 16.4037C24.8233 16.4051 24.7372 16.4068 24.6394 16.408C24.4403 16.4103 24.205 16.41 24.0285 16.4016L23.9715 17.6003ZM1 20.001C0.804646 20.5683 0.804707 20.5683 0.804778 20.5683C0.804816 20.5683 0.804897 20.5684 0.804972 20.5684C0.805122 20.5684 0.805313 20.5685 0.805545 20.5686C0.806008 20.5687 0.806636 20.5689 0.807426 20.5692C0.809006 20.5698 0.811235 20.5705 0.814099 20.5715C0.819827 20.5735 0.828096 20.5763 0.838796 20.5799C0.860194 20.5871 0.891325 20.5975 0.931305 20.6108C1.01125 20.6372 1.12667 20.6747 1.2705 20.7199C1.55789 20.81 1.96006 20.931 2.42009 21.0543C3.32774 21.2976 4.50674 21.5628 5.47672 21.6005L5.52328 20.4014C4.69439 20.3692 3.62339 20.1345 2.73076 19.8952C2.29065 19.7773 1.9051 19.6613 1.62982 19.5749C1.49231 19.5318 1.38265 19.4961 1.30785 19.4714C1.27046 19.459 1.2418 19.4494 1.22275 19.443C1.21323 19.4397 1.20611 19.4373 1.20151 19.4358C1.19921 19.435 1.19753 19.4344 1.1965 19.434C1.19599 19.4339 1.19563 19.4337 1.19544 19.4337C1.19535 19.4336 1.19529 19.4336 1.19527 19.4336C1.19527 19.4336 1.19529 19.4336 1.19528 19.4336C1.19531 19.4336 1.19535 19.4337 1 20.001ZM5.47672 21.6005C6.68228 21.6473 7.60019 21.3561 8.43234 21.0898C9.26565 20.8232 10.0087 20.5837 10.9895 20.6009L11.0105 19.401C9.80855 19.38 8.89231 19.6828 8.06668 19.9469C7.23988 20.2114 6.49917 20.4393 5.52328 20.4014L5.47672 21.6005ZM10.9895 20.6009C11.8767 20.6164 12.5433 20.8561 13.3065 21.1173C14.068 21.3778 14.9126 21.6534 16.0285 21.6003L15.9715 20.4016C15.0984 20.4432 14.4384 20.2363 13.695 19.9819C12.9532 19.7281 12.1143 19.4204 11.0105 19.401L10.9895 20.6009ZM16.0285 21.6003C16.9476 21.5565 17.6336 21.2661 18.2232 21.0289C18.8149 20.7909 19.3197 20.601 20 20.601V19.401C19.0701 19.401 18.3791 19.6728 17.7754 19.9156C17.1696 20.1593 16.6607 20.3688 15.9715 20.4016L16.0285 21.6003ZM20 20.601C20.6803 20.601 21.1851 20.7909 21.7768 21.0289C22.3664 21.2661 23.0524 21.5565 23.9715 21.6003L24.0285 20.4016C23.3393 20.3688 22.8304 20.1593 22.2246 19.9156C21.6209 19.6728 20.9299 19.401 20 19.401V20.601ZM23.9715 21.6003C24.1851 21.6105 24.4498 21.6102 24.6532 21.6079C24.7566 21.6067 24.8474 21.6049 24.9124 21.6034C24.9449 21.6027 24.9711 21.602 24.9893 21.6015C24.9983 21.6013 25.0054 21.6011 25.0103 21.6009C25.0128 21.6008 25.0147 21.6008 25.016 21.6007C25.0167 21.6007 25.0172 21.6007 25.0176 21.6007C25.0178 21.6007 25.0179 21.6007 25.018 21.6007C25.0181 21.6007 25.0181 21.6007 25.0182 21.6007C25.0182 21.6007 25.0182 21.6007 25.0182 21.6007C25.0182 21.6007 25.0183 21.6007 25 21.001C24.9817 20.4012 24.9817 20.4012 24.9818 20.4012C24.9818 20.4012 24.9818 20.4012 24.9818 20.4012C24.9818 20.4012 24.9818 20.4012 24.9817 20.4012C24.9817 20.4012 24.9816 20.4012 24.9815 20.4012C24.9813 20.4012 24.981 20.4013 24.9805 20.4013C24.9794 20.4013 24.9779 20.4013 24.9758 20.4014C24.9715 20.4015 24.9652 20.4017 24.9568 20.4019C24.9401 20.4024 24.9156 20.403 24.8848 20.4037C24.8233 20.4051 24.7372 20.4068 24.6394 20.408C24.4403 20.4103 24.205 20.41 24.0285 20.4016L23.9715 21.6003Z" fill="#EF8C03"/>
</svg>
