<svg width="56" height="56" viewBox="0 0 56 56" fill="none" xmlns="http://www.w3.org/2000/svg">
<path opacity="0.4" d="M31.4046 21.9256C31.3635 22.2544 31.5968 22.5543 31.9256 22.5954C32.2544 22.6365 32.5542 22.4032 32.5953 22.0744L31.4046 21.9256ZM28 22H28.6C28.6 21.9751 28.5984 21.9503 28.5953 21.9256L28 22ZM27.4 32C27.4 32.3314 27.6686 32.6 28 32.6C28.3313 32.6 28.6 32.3314 28.6 32H27.4ZM38.4046 21.9256C38.3635 22.2544 38.5968 22.5543 38.9256 22.5954C39.2544 22.6365 39.5542 22.4032 39.5953 22.0744L38.4046 21.9256ZM35 22L35.6 22C35.6 21.9751 35.5984 21.9503 35.5953 21.9256L35 22ZM16.1954 31.4337C15.882 31.3258 15.5406 31.4923 15.4327 31.8056C15.3248 32.1189 15.4913 32.4604 15.8046 32.5683L16.1954 31.4337ZM20.5 33.001L20.4767 33.6005L20.5 33.001ZM26 32.001L25.9895 32.6009L26 32.001ZM31 33.001L30.9715 32.4016L31 33.001ZM39 33.001L39.0285 32.4016L39 33.001ZM40.0183 33.6007C40.3495 33.5906 40.6098 33.3139 40.5997 32.9827C40.5896 32.6515 40.313 32.3911 39.9817 32.4012L40.0183 33.6007ZM16.1954 35.4337C15.882 35.3258 15.5406 35.4923 15.4327 35.8056C15.3248 36.1189 15.4913 36.4604 15.8046 36.5683L16.1954 35.4337ZM20.5 37.001L20.4767 37.6005L20.5 37.001ZM26 36.001L25.9895 36.6009L26 36.001ZM31 37.001L30.9715 36.4016L31 37.001ZM39 37.001L39.0285 36.4016L39 37.001ZM40.0183 37.6007C40.3495 37.5906 40.6098 37.3139 40.5997 36.9827C40.5896 36.6515 40.313 36.3911 39.9817 36.4012L40.0183 37.6007ZM32 22C32.5953 22.0744 32.5954 22.0742 32.5954 22.074C32.5954 22.0739 32.5954 22.0737 32.5955 22.0735C32.5955 22.0732 32.5956 22.0727 32.5956 22.0722C32.5957 22.0713 32.5959 22.0701 32.5961 22.0686C32.5964 22.0657 32.5969 22.0618 32.5974 22.057C32.5985 22.0474 32.6 22.0341 32.6018 22.0172C32.6053 21.9836 32.6099 21.9359 32.6147 21.8762C32.6242 21.7569 32.6347 21.5887 32.6389 21.3875C32.6472 20.9887 32.6312 20.4442 32.5272 19.8894C32.4247 19.3426 32.2268 18.7315 31.8328 18.2466C31.4183 17.7364 30.812 17.4 30 17.4V18.6C30.438 18.6 30.7067 18.7636 30.9015 19.0034C31.1169 19.2685 31.2628 19.6574 31.3477 20.1106C31.4312 20.5558 31.4465 21.0113 31.4392 21.3625C31.4355 21.5363 31.4265 21.6806 31.4185 21.7801C31.4145 21.8297 31.4108 21.868 31.4082 21.8929C31.4069 21.9054 31.4059 21.9145 31.4053 21.92C31.4049 21.9228 31.4047 21.9247 31.4046 21.9256C31.4046 21.9261 31.4045 21.9263 31.4045 21.9263C31.4045 21.9263 31.4045 21.9262 31.4045 21.9261C31.4046 21.9261 31.4046 21.9259 31.4046 21.9259C31.4046 21.9257 31.4046 21.9256 32 22ZM30 17.4C29.188 17.4 28.5817 17.7364 28.1671 18.2466C27.7732 18.7315 27.5753 19.3426 27.4728 19.8894C27.3687 20.4442 27.3527 20.9887 27.3611 21.3875C27.3652 21.5887 27.3757 21.7569 27.3853 21.8762C27.3901 21.9359 27.3947 21.9836 27.3982 22.0172C27.4 22.0341 27.4014 22.0474 27.4025 22.057C27.4031 22.0618 27.4036 22.0657 27.4039 22.0686C27.4041 22.0701 27.4042 22.0713 27.4043 22.0722C27.4044 22.0727 27.4045 22.0732 27.4045 22.0735C27.4045 22.0737 27.4046 22.0739 27.4046 22.074C27.4046 22.0742 27.4046 22.0744 28 22C28.5953 21.9256 28.5954 21.9257 28.5954 21.9259C28.5954 21.9259 28.5954 21.9261 28.5954 21.9261C28.5954 21.9262 28.5954 21.9263 28.5954 21.9263C28.5954 21.9263 28.5954 21.9261 28.5954 21.9256C28.5952 21.9247 28.595 21.9228 28.5947 21.92C28.5941 21.9145 28.593 21.9054 28.5917 21.8929C28.5891 21.868 28.5854 21.8297 28.5815 21.7801C28.5735 21.6806 28.5644 21.5363 28.5608 21.3625C28.5535 21.0113 28.5687 20.5558 28.6522 20.1106C28.7372 19.6574 28.8831 19.2685 29.0985 19.0034C29.2933 18.7636 29.562 18.6 30 18.6V17.4ZM27.4 22L27.4 32H28.6L28.6 22L27.4 22ZM39 22C39.5953 22.0744 39.5954 22.0742 39.5954 22.074C39.5954 22.0739 39.5954 22.0737 39.5955 22.0735C39.5955 22.0732 39.5956 22.0727 39.5956 22.0722C39.5957 22.0713 39.5959 22.0701 39.5961 22.0686C39.5964 22.0657 39.5969 22.0618 39.5974 22.057C39.5985 22.0474 39.6 22.0341 39.6018 22.0172C39.6053 21.9836 39.6099 21.9359 39.6147 21.8762C39.6242 21.7569 39.6347 21.5887 39.6389 21.3875C39.6472 20.9887 39.6312 20.4442 39.5272 19.8894C39.4247 19.3426 39.2268 18.7315 38.8328 18.2466C38.4183 17.7364 37.812 17.4 37 17.4V18.6C37.438 18.6 37.7067 18.7636 37.9015 19.0034C38.1169 19.2685 38.2628 19.6574 38.3478 20.1106C38.4312 20.5558 38.4465 21.0113 38.4392 21.3625C38.4356 21.5363 38.4265 21.6806 38.4185 21.7801C38.4145 21.8297 38.4108 21.868 38.4082 21.8929C38.4069 21.9054 38.4059 21.9145 38.4053 21.92C38.4049 21.9228 38.4047 21.9247 38.4046 21.9256C38.4046 21.9261 38.4045 21.9263 38.4045 21.9263C38.4045 21.9263 38.4045 21.9262 38.4045 21.9261C38.4046 21.9261 38.4046 21.9259 38.4046 21.9259C38.4046 21.9257 38.4046 21.9256 39 22ZM37 17.4C36.188 17.4 35.5817 17.7364 35.1671 18.2466C34.7732 18.7315 34.5753 19.3426 34.4728 19.8894C34.3687 20.4442 34.3527 20.9887 34.3611 21.3875C34.3652 21.5887 34.3757 21.7569 34.3853 21.8762C34.3901 21.9359 34.3947 21.9836 34.3982 22.0172C34.4 22.0341 34.4014 22.0474 34.4025 22.057C34.4031 22.0618 34.4036 22.0657 34.4039 22.0686C34.4041 22.0701 34.4042 22.0713 34.4043 22.0722C34.4044 22.0727 34.4045 22.0732 34.4045 22.0735C34.4045 22.0737 34.4046 22.0739 34.4046 22.074C34.4046 22.0742 34.4046 22.0744 35 22C35.5953 21.9256 35.5954 21.9257 35.5954 21.9259C35.5954 21.9259 35.5954 21.9261 35.5954 21.9261C35.5954 21.9262 35.5954 21.9263 35.5954 21.9263C35.5954 21.9263 35.5954 21.9261 35.5954 21.9256C35.5952 21.9247 35.595 21.9228 35.5947 21.92C35.5941 21.9145 35.593 21.9054 35.5917 21.8929C35.5891 21.868 35.5854 21.8297 35.5815 21.7801C35.5735 21.6806 35.5644 21.5363 35.5608 21.3625C35.5535 21.0113 35.5687 20.5558 35.6522 20.1106C35.7372 19.6574 35.8831 19.2685 36.0985 19.0034C36.2933 18.7636 36.562 18.6 37 18.6V17.4ZM34.4 22L34.4 32H35.6L35.6 22L34.4 22ZM28.5 25.6H34.5V24.4H28.5V25.6ZM28 29.6H35V28.4H28V29.6ZM16 32.001C15.8046 32.5683 15.8047 32.5683 15.8048 32.5683C15.8048 32.5683 15.8049 32.5684 15.805 32.5684C15.8051 32.5684 15.8053 32.5685 15.8055 32.5686C15.806 32.5687 15.8066 32.5689 15.8074 32.5692C15.809 32.5698 15.8112 32.5705 15.8141 32.5715C15.8198 32.5735 15.8281 32.5763 15.8388 32.5799C15.8602 32.5871 15.8913 32.5975 15.9313 32.6108C16.0112 32.6372 16.1267 32.6747 16.2705 32.7199C16.5579 32.81 16.9601 32.931 17.4201 33.0543C18.3277 33.2976 19.5067 33.5628 20.4767 33.6005L20.5233 32.4014C19.6944 32.3692 18.6234 32.1345 17.7308 31.8952C17.2906 31.7773 16.9051 31.6613 16.6298 31.5749C16.4923 31.5318 16.3827 31.4961 16.3079 31.4714C16.2705 31.459 16.2418 31.4494 16.2228 31.443C16.2132 31.4397 16.2061 31.4373 16.2015 31.4358C16.1992 31.435 16.1975 31.4344 16.1965 31.434C16.196 31.4339 16.1956 31.4337 16.1954 31.4337C16.1953 31.4336 16.1953 31.4336 16.1953 31.4336C16.1953 31.4336 16.1953 31.4336 16.1953 31.4336C16.1953 31.4336 16.1954 31.4337 16 32.001ZM20.4767 33.6005C21.6823 33.6473 22.6002 33.3561 23.4323 33.0898C24.2657 32.8232 25.0087 32.5837 25.9895 32.6009L26.0105 31.401C24.8085 31.38 23.8923 31.6828 23.0667 31.9469C22.2399 32.2114 21.4992 32.4393 20.5233 32.4014L20.4767 33.6005ZM25.9895 32.6009C26.8767 32.6164 27.5433 32.8561 28.3065 33.1173C29.068 33.3778 29.9126 33.6534 31.0285 33.6003L30.9715 32.4016C30.0984 32.4432 29.4384 32.2363 28.695 31.9819C27.9532 31.7281 27.1143 31.4204 26.0105 31.401L25.9895 32.6009ZM31.0285 33.6003C31.9477 33.5565 32.6338 33.2657 33.2234 33.0283C33.8151 32.7901 34.3198 32.6 35 32.6V31.4C34.07 31.4 33.3788 31.6721 32.7752 31.9152C32.1694 32.1591 31.6606 32.3688 30.9715 32.4016L31.0285 33.6003ZM35 32.6C35.6802 32.6 36.1848 32.7901 36.7766 33.0283C37.3662 33.2657 38.0523 33.5565 38.9715 33.6003L39.0285 32.4016C38.3394 32.3688 37.8306 32.1591 37.2248 31.9152C36.6211 31.6721 35.93 31.4 35 31.4V32.6ZM38.9715 33.6003C39.1851 33.6105 39.4498 33.6102 39.6532 33.6079C39.7566 33.6067 39.8474 33.6049 39.9124 33.6034C39.9449 33.6027 39.9711 33.602 39.9893 33.6015C39.9983 33.6013 40.0054 33.6011 40.0103 33.6009C40.0128 33.6008 40.0147 33.6008 40.016 33.6007C40.0167 33.6007 40.0172 33.6007 40.0176 33.6007C40.0178 33.6007 40.0179 33.6007 40.018 33.6007C40.0181 33.6007 40.0181 33.6007 40.0182 33.6007C40.0182 33.6007 40.0182 33.6007 40.0182 33.6007C40.0182 33.6007 40.0183 33.6007 40 33.001C39.9817 32.4012 39.9817 32.4012 39.9818 32.4012H39.9818C39.9818 32.4012 39.9818 32.4012 39.9817 32.4012C39.9817 32.4012 39.9816 32.4012 39.9815 32.4012C39.9813 32.4012 39.981 32.4013 39.9805 32.4013C39.9794 32.4013 39.9779 32.4014 39.9758 32.4014C39.9715 32.4015 39.9652 32.4017 39.9568 32.4019C39.9401 32.4024 39.9156 32.403 39.8848 32.4037C39.8233 32.4051 39.7372 32.4068 39.6394 32.408C39.4403 32.4103 39.205 32.41 39.0285 32.4016L38.9715 33.6003ZM16 36.001C15.8046 36.5683 15.8047 36.5683 15.8048 36.5683C15.8048 36.5683 15.8049 36.5683 15.805 36.5684C15.8051 36.5684 15.8053 36.5685 15.8055 36.5686C15.806 36.5687 15.8066 36.5689 15.8074 36.5692C15.809 36.5698 15.8112 36.5705 15.8141 36.5715C15.8198 36.5735 15.8281 36.5763 15.8388 36.5799C15.8602 36.5871 15.8913 36.5975 15.9313 36.6108C16.0112 36.6372 16.1267 36.6747 16.2705 36.7199C16.5579 36.81 16.9601 36.931 17.4201 37.0543C18.3277 37.2976 19.5067 37.5628 20.4767 37.6005L20.5233 36.4014C19.6944 36.3692 18.6234 36.1345 17.7308 35.8952C17.2906 35.7773 16.9051 35.6613 16.6298 35.5749C16.4923 35.5318 16.3827 35.4961 16.3079 35.4714C16.2705 35.459 16.2418 35.4494 16.2228 35.443C16.2132 35.4397 16.2061 35.4373 16.2015 35.4358C16.1992 35.435 16.1975 35.4344 16.1965 35.434C16.196 35.4339 16.1956 35.4337 16.1954 35.4337C16.1953 35.4336 16.1953 35.4336 16.1953 35.4336C16.1953 35.4336 16.1953 35.4336 16.1953 35.4336C16.1953 35.4336 16.1954 35.4337 16 36.001ZM20.4767 37.6005C21.6823 37.6473 22.6002 37.3561 23.4323 37.0898C24.2657 36.8232 25.0087 36.5837 25.9895 36.6009L26.0105 35.4011C24.8085 35.38 23.8923 35.6828 23.0667 35.9469C22.2399 36.2114 21.4992 36.4393 20.5233 36.4014L20.4767 37.6005ZM25.9895 36.6009C26.8767 36.6164 27.5433 36.8561 28.3065 37.1173C29.068 37.3778 29.9126 37.6534 31.0285 37.6003L30.9715 36.4016C30.0984 36.4432 29.4384 36.2363 28.695 35.9819C27.9532 35.7281 27.1143 35.4204 26.0105 35.4011L25.9895 36.6009ZM31.0285 37.6003C31.9476 37.5565 32.6336 37.2661 33.2232 37.0289C33.8149 36.7909 34.3197 36.601 35 36.601V35.401C34.0701 35.401 33.3791 35.6728 32.7754 35.9156C32.1696 36.1593 31.6607 36.3688 30.9715 36.4016L31.0285 37.6003ZM35 36.601C35.6803 36.601 36.1851 36.7909 36.7768 37.0289C37.3664 37.2661 38.0524 37.5565 38.9715 37.6003L39.0285 36.4016C38.3393 36.3688 37.8304 36.1593 37.2246 35.9156C36.6209 35.6728 35.9299 35.401 35 35.401V36.601ZM38.9715 37.6003C39.1851 37.6105 39.4498 37.6102 39.6532 37.6079C39.7566 37.6067 39.8474 37.6049 39.9124 37.6034C39.9449 37.6027 39.9711 37.602 39.9893 37.6015C39.9983 37.6013 40.0054 37.6011 40.0103 37.6009C40.0128 37.6008 40.0147 37.6008 40.016 37.6007C40.0167 37.6007 40.0172 37.6007 40.0176 37.6007C40.0178 37.6007 40.0179 37.6007 40.018 37.6007C40.0181 37.6007 40.0181 37.6007 40.0182 37.6007C40.0182 37.6007 40.0182 37.6007 40.0182 37.6007C40.0182 37.6007 40.0183 37.6007 40 37.001C39.9817 36.4012 39.9817 36.4012 39.9818 36.4012L39.9818 36.4012C39.9818 36.4012 39.9818 36.4012 39.9817 36.4012C39.9817 36.4012 39.9816 36.4012 39.9815 36.4012C39.9813 36.4012 39.981 36.4013 39.9805 36.4013C39.9794 36.4013 39.9779 36.4014 39.9758 36.4014C39.9715 36.4015 39.9652 36.4017 39.9568 36.4019C39.9401 36.4024 39.9156 36.403 39.8848 36.4037C39.8233 36.4051 39.7372 36.4068 39.6394 36.408C39.4403 36.4103 39.205 36.41 39.0285 36.4016L38.9715 37.6003Z" fill="#808191"/>
<path d="M31.4046 21.9256C31.3635 22.2544 31.5968 22.5543 31.9256 22.5954C32.2544 22.6365 32.5542 22.4032 32.5953 22.0744L31.4046 21.9256ZM28 22H28.6C28.6 21.9751 28.5984 21.9503 28.5953 21.9256L28 22ZM27.4 32C27.4 32.3314 27.6686 32.6 28 32.6C28.3313 32.6 28.6 32.3314 28.6 32H27.4ZM38.4046 21.9256C38.3635 22.2544 38.5968 22.5543 38.9256 22.5954C39.2544 22.6365 39.5542 22.4032 39.5953 22.0744L38.4046 21.9256ZM35 22L35.6 22C35.6 21.9751 35.5984 21.9503 35.5953 21.9256L35 22ZM16.1954 31.4337C15.882 31.3258 15.5406 31.4923 15.4327 31.8056C15.3248 32.1189 15.4913 32.4604 15.8046 32.5683L16.1954 31.4337ZM20.5 33.001L20.4767 33.6005L20.5 33.001ZM26 32.001L25.9895 32.6009L26 32.001ZM31 33.001L30.9715 32.4016L31 33.001ZM39 33.001L39.0285 32.4016L39 33.001ZM40.0183 33.6007C40.3495 33.5906 40.6098 33.3139 40.5997 32.9827C40.5896 32.6515 40.313 32.3911 39.9817 32.4012L40.0183 33.6007ZM32 22C32.5953 22.0744 32.5954 22.0742 32.5954 22.074C32.5954 22.0739 32.5954 22.0737 32.5955 22.0735C32.5955 22.0732 32.5956 22.0727 32.5956 22.0722C32.5957 22.0713 32.5959 22.0701 32.5961 22.0686C32.5964 22.0657 32.5969 22.0618 32.5974 22.057C32.5985 22.0474 32.6 22.0341 32.6018 22.0172C32.6053 21.9836 32.6099 21.9359 32.6147 21.8762C32.6242 21.7569 32.6347 21.5887 32.6389 21.3875C32.6472 20.9887 32.6312 20.4442 32.5272 19.8894C32.4247 19.3426 32.2268 18.7315 31.8328 18.2466C31.4183 17.7364 30.812 17.4 30 17.4V18.6C30.438 18.6 30.7067 18.7636 30.9015 19.0034C31.1169 19.2685 31.2628 19.6574 31.3477 20.1106C31.4312 20.5558 31.4465 21.0113 31.4392 21.3625C31.4355 21.5363 31.4265 21.6806 31.4185 21.7801C31.4145 21.8297 31.4108 21.868 31.4082 21.8929C31.4069 21.9054 31.4059 21.9145 31.4053 21.92C31.4049 21.9228 31.4047 21.9247 31.4046 21.9256C31.4046 21.9261 31.4045 21.9263 31.4045 21.9263C31.4045 21.9263 31.4045 21.9262 31.4045 21.9261C31.4046 21.9261 31.4046 21.9259 31.4046 21.9259C31.4046 21.9257 31.4046 21.9256 32 22ZM30 17.4C29.188 17.4 28.5817 17.7364 28.1671 18.2466C27.7732 18.7315 27.5753 19.3426 27.4728 19.8894C27.3687 20.4442 27.3527 20.9887 27.3611 21.3875C27.3652 21.5887 27.3757 21.7569 27.3853 21.8762C27.3901 21.9359 27.3947 21.9836 27.3982 22.0172C27.4 22.0341 27.4014 22.0474 27.4025 22.057C27.4031 22.0618 27.4036 22.0657 27.4039 22.0686C27.4041 22.0701 27.4042 22.0713 27.4043 22.0722C27.4044 22.0727 27.4045 22.0732 27.4045 22.0735C27.4045 22.0737 27.4046 22.0739 27.4046 22.074C27.4046 22.0742 27.4046 22.0744 28 22C28.5953 21.9256 28.5954 21.9257 28.5954 21.9259C28.5954 21.9259 28.5954 21.9261 28.5954 21.9261C28.5954 21.9262 28.5954 21.9263 28.5954 21.9263C28.5954 21.9263 28.5954 21.9261 28.5954 21.9256C28.5952 21.9247 28.595 21.9228 28.5947 21.92C28.5941 21.9145 28.593 21.9054 28.5917 21.8929C28.5891 21.868 28.5854 21.8297 28.5815 21.7801C28.5735 21.6806 28.5644 21.5363 28.5608 21.3625C28.5535 21.0113 28.5687 20.5558 28.6522 20.1106C28.7372 19.6574 28.8831 19.2685 29.0985 19.0034C29.2933 18.7636 29.562 18.6 30 18.6V17.4ZM27.4 22L27.4 32H28.6L28.6 22L27.4 22ZM39 22C39.5953 22.0744 39.5954 22.0742 39.5954 22.074C39.5954 22.0739 39.5954 22.0737 39.5955 22.0735C39.5955 22.0732 39.5956 22.0727 39.5956 22.0722C39.5957 22.0713 39.5959 22.0701 39.5961 22.0686C39.5964 22.0657 39.5969 22.0618 39.5974 22.057C39.5985 22.0474 39.6 22.0341 39.6018 22.0172C39.6053 21.9836 39.6099 21.9359 39.6147 21.8762C39.6242 21.7569 39.6347 21.5887 39.6389 21.3875C39.6472 20.9887 39.6312 20.4442 39.5272 19.8894C39.4247 19.3426 39.2268 18.7315 38.8328 18.2466C38.4183 17.7364 37.812 17.4 37 17.4V18.6C37.438 18.6 37.7067 18.7636 37.9015 19.0034C38.1169 19.2685 38.2628 19.6574 38.3478 20.1106C38.4312 20.5558 38.4465 21.0113 38.4392 21.3625C38.4356 21.5363 38.4265 21.6806 38.4185 21.7801C38.4145 21.8297 38.4108 21.868 38.4082 21.8929C38.4069 21.9054 38.4059 21.9145 38.4053 21.92C38.4049 21.9228 38.4047 21.9247 38.4046 21.9256C38.4046 21.9261 38.4045 21.9263 38.4045 21.9263C38.4045 21.9263 38.4045 21.9262 38.4045 21.9261C38.4046 21.9261 38.4046 21.9259 38.4046 21.9259C38.4046 21.9257 38.4046 21.9256 39 22ZM37 17.4C36.188 17.4 35.5817 17.7364 35.1671 18.2466C34.7732 18.7315 34.5753 19.3426 34.4728 19.8894C34.3687 20.4442 34.3527 20.9887 34.3611 21.3875C34.3652 21.5887 34.3757 21.7569 34.3853 21.8762C34.3901 21.9359 34.3947 21.9836 34.3982 22.0172C34.4 22.0341 34.4014 22.0474 34.4025 22.057C34.4031 22.0618 34.4036 22.0657 34.4039 22.0686C34.4041 22.0701 34.4042 22.0713 34.4043 22.0722C34.4044 22.0727 34.4045 22.0732 34.4045 22.0735C34.4045 22.0737 34.4046 22.0739 34.4046 22.074C34.4046 22.0742 34.4046 22.0744 35 22C35.5953 21.9256 35.5954 21.9257 35.5954 21.9259C35.5954 21.9259 35.5954 21.9261 35.5954 21.9261C35.5954 21.9262 35.5954 21.9263 35.5954 21.9263C35.5954 21.9263 35.5954 21.9261 35.5954 21.9256C35.5952 21.9247 35.595 21.9228 35.5947 21.92C35.5941 21.9145 35.593 21.9054 35.5917 21.8929C35.5891 21.868 35.5854 21.8297 35.5815 21.7801C35.5735 21.6806 35.5644 21.5363 35.5608 21.3625C35.5535 21.0113 35.5687 20.5558 35.6522 20.1106C35.7372 19.6574 35.8831 19.2685 36.0985 19.0034C36.2933 18.7636 36.562 18.6 37 18.6V17.4ZM34.4 22L34.4 32H35.6L35.6 22L34.4 22ZM16 32.001C15.8046 32.5683 15.8047 32.5683 15.8048 32.5683C15.8048 32.5683 15.8049 32.5684 15.805 32.5684C15.8051 32.5684 15.8053 32.5685 15.8055 32.5686C15.806 32.5687 15.8066 32.5689 15.8074 32.5692C15.809 32.5698 15.8112 32.5705 15.8141 32.5715C15.8198 32.5735 15.8281 32.5763 15.8388 32.5799C15.8602 32.5871 15.8913 32.5975 15.9313 32.6108C16.0112 32.6372 16.1267 32.6747 16.2705 32.7199C16.5579 32.81 16.9601 32.931 17.4201 33.0543C18.3277 33.2976 19.5067 33.5628 20.4767 33.6005L20.5233 32.4014C19.6944 32.3692 18.6234 32.1345 17.7308 31.8952C17.2906 31.7773 16.9051 31.6613 16.6298 31.5749C16.4923 31.5318 16.3827 31.4961 16.3079 31.4714C16.2705 31.459 16.2418 31.4494 16.2228 31.443C16.2132 31.4397 16.2061 31.4373 16.2015 31.4358C16.1992 31.435 16.1975 31.4344 16.1965 31.434C16.196 31.4339 16.1956 31.4337 16.1954 31.4337C16.1953 31.4336 16.1953 31.4336 16.1953 31.4336C16.1953 31.4336 16.1953 31.4336 16.1953 31.4336C16.1953 31.4336 16.1954 31.4337 16 32.001ZM20.4767 33.6005C21.6823 33.6473 22.6002 33.3561 23.4323 33.0898C24.2657 32.8232 25.0087 32.5837 25.9895 32.6009L26.0105 31.401C24.8085 31.38 23.8923 31.6828 23.0667 31.9469C22.2399 32.2114 21.4992 32.4393 20.5233 32.4014L20.4767 33.6005ZM25.9895 32.6009C26.8767 32.6164 27.5433 32.8561 28.3065 33.1173C29.068 33.3778 29.9126 33.6534 31.0285 33.6003L30.9715 32.4016C30.0984 32.4432 29.4384 32.2363 28.695 31.9819C27.9532 31.7281 27.1143 31.4204 26.0105 31.401L25.9895 32.6009ZM31.0285 33.6003C31.9477 33.5565 32.6338 33.2657 33.2234 33.0283C33.8151 32.7901 34.3198 32.6 35 32.6V31.4C34.07 31.4 33.3788 31.6721 32.7752 31.9152C32.1694 32.1591 31.6606 32.3688 30.9715 32.4016L31.0285 33.6003ZM35 32.6C35.6802 32.6 36.1848 32.7901 36.7766 33.0283C37.3662 33.2657 38.0523 33.5565 38.9715 33.6003L39.0285 32.4016C38.3394 32.3688 37.8306 32.1591 37.2248 31.9152C36.6211 31.6721 35.93 31.4 35 31.4V32.6ZM38.9715 33.6003C39.1851 33.6105 39.4498 33.6102 39.6532 33.6079C39.7566 33.6067 39.8474 33.6049 39.9124 33.6034C39.9449 33.6027 39.9711 33.602 39.9893 33.6015C39.9983 33.6013 40.0054 33.6011 40.0103 33.6009C40.0128 33.6008 40.0147 33.6008 40.016 33.6007C40.0167 33.6007 40.0172 33.6007 40.0176 33.6007C40.0178 33.6007 40.0179 33.6007 40.018 33.6007C40.0181 33.6007 40.0181 33.6007 40.0182 33.6007C40.0182 33.6007 40.0182 33.6007 40.0182 33.6007C40.0182 33.6007 40.0183 33.6007 40 33.001C39.9817 32.4012 39.9817 32.4012 39.9818 32.4012H39.9818C39.9818 32.4012 39.9818 32.4012 39.9817 32.4012C39.9817 32.4012 39.9816 32.4012 39.9815 32.4012C39.9813 32.4012 39.981 32.4013 39.9805 32.4013C39.9794 32.4013 39.9779 32.4014 39.9758 32.4014C39.9715 32.4015 39.9652 32.4017 39.9568 32.4019C39.9401 32.4024 39.9156 32.403 39.8848 32.4037C39.8233 32.4051 39.7372 32.4068 39.6394 32.408C39.4403 32.4103 39.205 32.41 39.0285 32.4016L38.9715 33.6003Z" fill="#808191"/>
</svg>
