<svg
  width="25"
  height="24"
  viewBox="0 0 25 24"
  fill="none"
  xmlns="http://www.w3.org/2000/svg"
>
<g clip-path="url(#clip0)">
<path
      d="M20.9 14.7C20.1 14.9 19.3 15 18.5 15C13.5 15 9.5 11 9.5 5.99995C9.5 5.19995 9.6 4.39995 9.8 3.59995C9.9 3.29995 9.8 2.89995 9.5 2.59995C9.2 2.29995 8.9 2.19995 8.5 2.29995C3.8 3.69995 0.5 8.09995 0.5 13C0.5 19.1 5.4 24 11.5 24C16.4 24 20.8 20.7 22.1 15.9C22.2 15.6 22.1 15.2 21.8 14.9C21.6 14.7 21.2 14.6 20.9 14.7Z"
      fill="#808191"
    />
<path
      d="M13.5 4H14.5V5C14.5 5.6 14.9 6 15.5 6C16.1 6 16.5 5.6 16.5 5V4H17.5C18.1 4 18.5 3.6 18.5 3C18.5 2.4 18.1 2 17.5 2H16.5V1C16.5 0.4 16.1 0 15.5 0C14.9 0 14.5 0.4 14.5 1V2H13.5C12.9 2 12.5 2.4 12.5 3C12.5 3.6 12.9 4 13.5 4Z"
      fill="#808191"
    />
<path
      d="M23.5 8H22.5V7C22.5 6.4 22.1 6 21.5 6C20.9 6 20.5 6.4 20.5 7V8H19.5C18.9 8 18.5 8.4 18.5 9C18.5 9.6 18.9 10 19.5 10H20.5V11C20.5 11.6 20.9 12 21.5 12C22.1 12 22.5 11.6 22.5 11V10H23.5C24.1 10 24.5 9.6 24.5 9C24.5 8.4 24.1 8 23.5 8Z"
      fill="#808191"
    />
</g>
<defs>
<clipPath id="clip0">
<rect width="24" height="24" fill="white" transform="translate(0.5)" />
</clipPath>
</defs>
</svg>
