<svg
  width="177"
  height="40"
  viewBox="0 0 177 40"
  fill="none"
  xmlns="http://www.w3.org/2000/svg"
>
<g clip-path="url(#clip0)">
<path
      d="M13.5 11.4726C13.5 10.9637 13.8353 10.5172 14.32 10.3807L24.9364 7.39278C25.1363 7.33654 25.3476 7.33753 25.5469 7.39564L35.7669 10.3754C36.2466 10.5152 36.5769 10.9593 36.5769 11.4644V28.5823C36.5769 29.0891 36.2444 29.5343 35.7625 29.6725L25.5427 32.6072C25.346 32.6636 25.1378 32.6645 24.9408 32.6099L14.3242 29.6672C13.8375 29.5322 13.5 29.0848 13.5 28.5741V11.4726Z"
      fill="url(#paint0_angular)"
    />
<path
      d="M50.7141 28.0918C49.564 28.0918 48.5333 27.9029 47.6222 27.5252C46.7112 27.1474 45.9792 26.5883 45.4266 25.8478C44.8889 25.1074 44.6051 24.2158 44.5752 23.1732H48.6529C48.7126 23.7625 48.9142 24.2158 49.2578 24.5332C49.6014 24.8354 50.0495 24.9865 50.6021 24.9865C51.1697 24.9865 51.6178 24.8581 51.9464 24.6012C52.2749 24.3292 52.4393 23.9589 52.4393 23.4905C52.4393 23.0976 52.3048 22.7728 52.036 22.5158C51.782 22.2589 51.461 22.0474 51.0726 21.8812C50.6992 21.7149 50.1615 21.5261 49.4594 21.3145C48.4437 20.9972 47.6147 20.6798 46.9725 20.3625C46.3303 20.0452 45.7775 19.5768 45.3146 18.9572C44.8516 18.3376 44.62 17.5292 44.62 16.5318C44.62 15.0509 45.1502 13.895 46.2107 13.0638C47.2713 12.2176 48.6529 11.7945 50.3556 11.7945C52.0883 11.7945 53.4848 12.2176 54.5453 13.0638C55.6059 13.895 56.1734 15.0585 56.2481 16.5545H52.1032C52.0733 16.0408 51.8867 15.6403 51.5431 15.3532C51.1995 15.0509 50.7589 14.8998 50.2212 14.8998C49.7582 14.8998 49.3847 15.0283 49.101 15.2852C48.8172 15.5269 48.6753 15.8821 48.6753 16.3505C48.6753 16.8643 48.9142 17.2648 49.3922 17.5518C49.8702 17.8389 50.617 18.1488 51.6327 18.4812C52.6484 18.8288 53.4699 19.1612 54.0972 19.4785C54.7395 19.7958 55.2922 20.2568 55.7552 20.8612C56.2182 21.4656 56.4497 22.2438 56.4497 23.1958C56.4497 24.1025 56.2182 24.9261 55.7552 25.6665C55.3071 26.4069 54.6498 26.9963 53.7836 27.4345C52.9173 27.8728 51.8941 28.0918 50.7141 28.0918ZM76.7537 15.2852L73.3706 27.9332H69.1361L67.1645 19.7278L65.1256 27.9332H60.9135L57.508 15.2852H61.3392L63.1092 24.3292L65.2153 15.2852H69.2705L71.399 24.2838L73.1466 15.2852H76.7537ZM77.453 21.5865C77.453 20.2869 77.6919 19.1461 78.1699 18.1638C78.6628 17.1816 79.3275 16.4261 80.164 15.8972C81.0004 15.3683 81.9339 15.1038 82.9646 15.1038C83.8458 15.1038 84.615 15.2852 85.2722 15.6478C85.9444 16.0105 86.4597 16.4865 86.8182 17.0758V15.2852H90.6494V27.9332H86.8182V26.1425C86.4448 26.7318 85.922 27.2078 85.2498 27.5705C84.5926 27.9332 83.8234 28.1145 82.9421 28.1145C81.9264 28.1145 81.0004 27.8501 80.164 27.3212C79.3275 26.7772 78.6628 26.0141 78.1699 25.0318C77.6919 24.0345 77.453 22.8861 77.453 21.5865ZM86.8182 21.6092C86.8182 20.6421 86.5493 19.8789 86.0116 19.3198C85.4888 18.7608 84.8466 18.4812 84.0848 18.4812C83.323 18.4812 82.6733 18.7608 82.1356 19.3198C81.6128 19.8638 81.3514 20.6194 81.3514 21.5865C81.3514 22.5536 81.6128 23.3243 82.1356 23.8985C82.6733 24.4576 83.323 24.7372 84.0848 24.7372C84.8466 24.7372 85.4888 24.4576 86.0116 23.8985C86.5493 23.3394 86.8182 22.5763 86.8182 21.6092ZM97.2523 17.0758C97.6258 16.4865 98.1411 16.0105 98.7982 15.6478C99.4555 15.2852 100.225 15.1038 101.106 15.1038C102.137 15.1038 103.07 15.3683 103.907 15.8972C104.743 16.4261 105.4 17.1816 105.878 18.1638C106.371 19.1461 106.618 20.2869 106.618 21.5865C106.618 22.8861 106.371 24.0345 105.878 25.0318C105.4 26.0141 104.743 26.7772 103.907 27.3212C103.07 27.8501 102.137 28.1145 101.106 28.1145C100.24 28.1145 99.4704 27.9332 98.7982 27.5705C98.1411 27.2078 97.6258 26.7394 97.2523 26.1652V33.9625H93.4211V15.2852H97.2523V17.0758ZM102.719 21.5865C102.719 20.6194 102.45 19.8638 101.913 19.3198C101.39 18.7608 100.74 18.4812 99.9633 18.4812C99.2015 18.4812 98.5518 18.7608 98.0141 19.3198C97.4914 19.8789 97.2299 20.6421 97.2299 21.6092C97.2299 22.5763 97.4914 23.3394 98.0141 23.8985C98.5518 24.4576 99.2015 24.7372 99.9633 24.7372C100.725 24.7372 101.375 24.4576 101.913 23.8985C102.45 23.3243 102.719 22.5536 102.719 21.5865ZM112.459 17.0758C112.832 16.4865 113.347 16.0105 114.005 15.6478C114.662 15.2852 115.431 15.1038 116.312 15.1038C117.343 15.1038 118.277 15.3683 119.113 15.8972C119.949 16.4261 120.607 17.1816 121.084 18.1638C121.577 19.1461 121.824 20.2869 121.824 21.5865C121.824 22.8861 121.577 24.0345 121.084 25.0318C120.607 26.0141 119.949 26.7772 119.113 27.3212C118.277 27.8501 117.343 28.1145 116.312 28.1145C115.446 28.1145 114.677 27.9332 114.005 27.5705C113.347 27.2078 112.832 26.7394 112.459 26.1652V33.9625H108.627V15.2852H112.459V17.0758ZM117.925 21.5865C117.925 20.6194 117.657 19.8638 117.119 19.3198C116.596 18.7608 115.946 18.4812 115.17 18.4812C114.408 18.4812 113.758 18.7608 113.22 19.3198C112.698 19.8789 112.436 20.6421 112.436 21.6092C112.436 22.5763 112.698 23.3394 113.22 23.8985C113.758 24.4576 114.408 24.7372 115.17 24.7372C115.931 24.7372 116.581 24.4576 117.119 23.8985C117.657 23.3243 117.925 22.5536 117.925 21.5865ZM135.619 21.4052C135.619 21.7678 135.597 22.1456 135.552 22.5385H126.881C126.941 23.3243 127.187 23.9288 127.621 24.3518C128.069 24.7598 128.613 24.9638 129.256 24.9638C130.212 24.9638 130.876 24.5558 131.25 23.7398H135.328C135.119 24.5709 134.738 25.3189 134.185 25.9838C133.648 26.6488 132.968 27.1701 132.147 27.5478C131.324 27.9256 130.406 28.1145 129.391 28.1145C128.165 28.1145 127.075 27.8501 126.12 27.3212C125.163 26.7923 124.416 26.0368 123.879 25.0545C123.341 24.0723 123.072 22.9238 123.072 21.6092C123.072 20.2945 123.333 19.1461 123.856 18.1638C124.394 17.1816 125.141 16.4261 126.097 15.8972C127.053 15.3683 128.151 15.1038 129.391 15.1038C130.601 15.1038 131.676 15.3608 132.617 15.8745C133.558 16.3883 134.29 17.1212 134.813 18.0732C135.35 19.0252 135.619 20.1358 135.619 21.4052ZM131.698 20.3852C131.698 19.7203 131.474 19.1914 131.026 18.7985C130.578 18.4056 130.018 18.2092 129.346 18.2092C128.703 18.2092 128.158 18.3981 127.71 18.7758C127.277 19.1536 127.008 19.6901 126.904 20.3852H131.698ZM141.471 17.3932C141.919 16.6981 142.48 16.1541 143.152 15.7612C143.824 15.3532 144.57 15.1492 145.392 15.1492V19.2518H144.339C143.383 19.2518 142.666 19.4634 142.188 19.8865C141.71 20.2945 141.471 21.0198 141.471 22.0625V27.9332H137.64V15.2852H141.471V17.3932ZM157.304 17.2118H154.727V27.9332H152.688V17.2118H151.098V15.5118H152.688V14.6278C152.688 13.2376 153.039 12.2252 153.741 11.5905C154.458 10.9407 155.601 10.6158 157.169 10.6158V12.3385C156.273 12.3385 155.638 12.5198 155.265 12.8825C154.906 13.2301 154.727 13.8118 154.727 14.6278V15.5118H157.304V17.2118ZM160.734 13.4945C160.345 13.4945 160.017 13.3585 159.748 13.0865C159.479 12.8145 159.345 12.4821 159.345 12.0892C159.345 11.6963 159.479 11.3638 159.748 11.0918C160.017 10.8198 160.345 10.6838 160.734 10.6838C161.107 10.6838 161.421 10.8198 161.675 11.0918C161.944 11.3638 162.078 11.6963 162.078 12.0892C162.078 12.4821 161.944 12.8145 161.675 13.0865C161.421 13.3585 161.107 13.4945 160.734 13.4945ZM161.72 15.5118V27.9332H159.681V15.5118H161.72Z"
      fill="white"
    />
<g filter="url(#filter0_d)">
<path
        d="M30.6799 20.4565C30.3714 20.0116 29.9974 19.6494 29.5578 19.3699L28.1006 21.6722C28.2488 21.7628 28.374 21.8813 28.4764 22.0275C28.5787 22.1739 28.6501 22.34 28.6904 22.526C28.7307 22.7121 28.7346 22.8932 28.7022 23.0694C28.6697 23.2455 28.6056 23.4093 28.5099 23.5605C28.419 23.7042 28.3012 23.8277 28.1566 23.9313C28.0121 24.0349 27.8479 24.1071 27.6639 24.1479L21.8071 25.4473L22.3858 28.1168L28.2426 26.8176C28.7881 26.6965 29.2771 26.4776 29.7095 26.1606C30.1481 25.8423 30.5061 25.4639 30.7837 25.0254C31.066 24.5792 31.2559 24.0919 31.3533 23.5634C31.4568 23.0335 31.4489 22.4925 31.3292 21.9406C31.2096 21.3887 30.9932 20.894 30.6799 20.4565Z"
        fill="white"
      />
<path
        d="M23.262 28.7968L22.2709 24.2247L19.8086 27.0685L23.262 28.7968Z"
        fill="white"
      />
<path
        d="M26.8804 11.2451L27.8714 15.8172L30.3337 12.9734L26.8804 11.2451Z"
        fill="white"
      />
<path
        d="M18.8084 16.753C18.7048 17.283 18.7129 17.8239 18.8325 18.3758C18.9521 18.9278 19.1693 19.4255 19.4838 19.8692C19.7971 20.3067 20.1711 20.6689 20.6059 20.9559C21.0455 21.2353 21.5273 21.4274 22.0511 21.5322C22.5749 21.637 23.1095 21.6288 23.6551 21.5078L26.2938 20.9224C26.4778 20.8816 26.6568 20.8777 26.8309 20.9105L28.2776 18.715C28.2776 18.715 26.7762 18.26 25.7152 18.2527C24.6542 18.2455 23.0764 18.8382 23.0764 18.8382C22.8925 18.879 22.7135 18.883 22.5394 18.8501C22.3652 18.8173 22.2041 18.7555 22.0559 18.6648C21.9126 18.5667 21.7897 18.4444 21.6874 18.2982C21.5836 18.1456 21.5116 17.9764 21.4713 17.7905C21.431 17.6044 21.427 17.4233 21.4595 17.247C21.492 17.0709 21.5537 16.911 21.6446 16.7673C21.7403 16.6161 21.8605 16.4887 22.0051 16.3851C22.1497 16.2815 22.3139 16.2093 22.4978 16.1685L28.5476 14.8263L27.969 12.1567L21.9191 13.4989C21.3736 13.6199 20.8846 13.8389 20.4522 14.1558C20.0198 14.4727 19.6624 14.8542 19.3801 15.3003C19.1025 15.7389 18.912 16.2232 18.8084 16.753Z"
        fill="white"
      />
</g>
<path
      d="M147.591 24.1934L150.056 26.6861L147.591 29.1789L145.128 26.6861L147.591 24.1934Z"
      fill="#ED8F07"
    />
</g>
<defs>
<filter
      id="filter0_d"
      x="14.7363"
      y="11.2451"
      width="20.6891"
      height="25.5517"
      filterUnits="userSpaceOnUse"
      color-interpolation-filters="sRGB"
    >
<feFlood flood-opacity="0" result="BackgroundImageFix" />
<feColorMatrix
        in="SourceAlpha"
        type="matrix"
        values="0 0 0 0 0 0 0 0 0 0 0 0 0 0 0 0 0 0 127 0"
      />
<feOffset dy="4" />
<feGaussianBlur stdDeviation="2" />
<feColorMatrix
        type="matrix"
        values="0 0 0 0 0 0 0 0 0 0 0 0 0 0 0 0 0 0 0.25 0"
      />
<feBlend mode="normal" in2="BackgroundImageFix" result="effect1_dropShadow" />
<feBlend
        mode="normal"
        in="SourceGraphic"
        in2="effect1_dropShadow"
        result="shape"
      />
</filter>
<radialGradient
      id="paint0_angular"
      cx="0"
      cy="0"
      r="1"
      gradientUnits="userSpaceOnUse"
      gradientTransform="translate(25.0385 20.0001) rotate(-47.2647) scale(21.3038 18.4392)"
    >
<stop offset="0.00565451" stop-color="#EC8908" />
<stop offset="0.203125" stop-color="#B620E0" />
<stop offset="0.427083" stop-color="#355DFF" />
<stop offset="0.744792" stop-color="#FFE000" />
</radialGradient>
<clipPath id="clip0">
<rect width="150" height="34" fill="white" transform="translate(13.5 3)" />
</clipPath>
</defs>
</svg>
