<svg width="24" height="24" viewBox="0 0 24 24" fill="none" xmlns="http://www.w3.org/2000/svg">
<path fill-rule="evenodd" clip-rule="evenodd" d="M9.42521 15.446C9.66529 15.446 9.88537 15.356 10.0454 15.186L15.1873 10.047C15.5274 9.70699 15.5274 9.14599 15.1873 8.80599C14.8472 8.46699 14.297 8.46699 13.9568 8.80599L8.81499 13.946C8.47486 14.286 8.47486 14.846 8.81499 15.186C8.97504 15.356 9.19512 15.446 9.42521 15.446ZM13.6968 14.566C13.6968 15.056 14.0869 15.446 14.5771 15.446C15.0572 15.446 15.4474 15.056 15.4474 14.566C15.4474 14.087 15.0572 13.696 14.5771 13.696C14.0869 13.696 13.6968 14.087 13.6968 14.566ZM9.43521 8.55599C9.91539 8.55599 10.3055 8.94599 10.3055 9.42599C10.3055 9.91699 9.91539 10.306 9.43521 10.306C8.95504 10.306 8.55489 9.91699 8.55489 9.42599C8.55489 8.94599 8.95504 8.55599 9.43521 8.55599V8.55599ZM21.1194 9.86599L20.3992 9.14599C20.1191 8.86599 19.959 8.48599 19.959 8.08699V7.05599C19.959 5.39599 18.6085 4.04699 16.9479 4.04699H15.9176C15.5174 4.04699 15.1373 3.88599 14.8572 3.60599L14.1269 2.87699C12.9465 1.70699 11.0358 1.70699 9.86537 2.88599L9.14511 3.60599C8.865 3.88599 8.48487 4.04699 8.08472 4.04699H7.05435C5.39375 4.04699 4.04326 5.39599 4.04326 7.05599V8.07599C4.04326 8.48599 3.8832 8.86599 3.6031 9.14599L2.87283 9.87699C1.70241 11.056 1.71241 12.967 2.88284 14.136L3.6031 14.846C3.8832 15.136 4.04326 15.516 4.04326 15.917V16.946C4.04326 18.606 5.39375 19.957 7.05435 19.957H8.08472C8.48487 19.957 8.865 20.116 9.14511 20.396L9.87537 21.127C10.4656 21.707 11.2359 21.996 12.0061 21.996C12.7764 21.996 13.5467 21.707 14.1369 21.116L14.8572 20.396C15.1373 20.116 15.5174 19.957 15.9176 19.957H16.9479C18.6085 19.957 19.959 18.606 19.959 16.946V15.917C19.959 15.516 20.1191 15.136 20.3992 14.856L21.1094 14.146C21.1194 14.136 21.1295 14.127 21.1395 14.116C21.6997 13.547 22.0098 12.786 21.9998 11.986C21.9998 11.186 21.6897 10.426 21.1194 9.86599V9.86599Z" fill="#EF8C03"/>
</svg>
