<svg width="56" height="56" viewBox="0 0 56 56" fill="none" xmlns="http://www.w3.org/2000/svg">
<path d="M20.7941 23.0557C20.7941 21.8067 21.8071 20.7937 23.0551 20.7937H24.0841C24.6801 20.7937 25.2531 20.5577 25.6771 20.1367L26.3961 19.4167C27.2771 18.5317 28.7091 18.5277 29.5941 19.4087L29.6031 19.4167L30.3231 20.1367C30.7461 20.5577 31.3191 20.7937 31.9161 20.7937H32.9441C34.1931 20.7937 35.2061 21.8067 35.2061 23.0557V24.0827C35.2061 24.6807 35.4421 25.2527 35.8631 25.6767L36.5831 26.3967C37.4681 27.2777 37.4731 28.7087 36.5921 29.5947L36.5831 29.6037L35.8631 30.3237C35.4421 30.7457 35.2061 31.3197 35.2061 31.9157V32.9447C35.2061 34.1937 34.1931 35.2057 32.9441 35.2057H31.9161C31.3191 35.2057 30.7461 35.4427 30.3231 35.8637L29.6031 36.5827C28.7231 37.4687 27.2911 37.4727 26.4051 36.5917C26.4021 36.5887 26.3991 36.5857 26.3961 36.5827L25.6771 35.8637C25.2531 35.4427 24.6801 35.2057 24.0841 35.2057H23.0551C21.8071 35.2057 20.7941 34.1937 20.7941 32.9447V31.9157C20.7941 31.3197 20.5571 30.7457 20.1361 30.3237L19.4171 29.6037C18.5311 28.7227 18.5271 27.2907 19.4081 26.4057L19.4171 26.3967L20.1361 25.6767C20.5571 25.2527 20.7941 24.6807 20.7941 24.0827V23.0557" stroke="#808191" stroke-width="1.5" stroke-linecap="round" stroke-linejoin="round"/>
<path opacity="0.5" d="M25.4297 30.5694L30.5697 25.4294" stroke="#808191" stroke-width="1.5" stroke-linecap="round" stroke-linejoin="round"/>
<path opacity="0.5" d="M30.5664 31.3224C30.3664 31.3224 30.1764 31.2424 30.0364 31.1024C29.9664 31.0324 29.9164 30.9424 29.8764 30.8524C29.8364 30.7624 29.8164 30.6734 29.8164 30.5724C29.8164 30.4724 29.8364 30.3724 29.8764 30.2824C29.9164 30.1924 29.9664 30.1124 30.0364 30.0424C30.3164 29.7624 30.8164 29.7624 31.0964 30.0424C31.1664 30.1124 31.2264 30.1924 31.2664 30.2824C31.2964 30.3724 31.3164 30.4724 31.3164 30.5724C31.3164 30.6734 31.2964 30.7624 31.2664 30.8524C31.2264 30.9424 31.1664 31.0324 31.0964 31.1024C30.9564 31.2424 30.7664 31.3224 30.5664 31.3224Z" fill="#808191"/>
<path opacity="0.5" d="M25.4263 26.1828C25.3263 26.1828 25.2363 26.1618 25.1463 26.1218C25.0563 26.0818 24.9663 26.0328 24.8963 25.9628C24.8263 25.8828 24.7763 25.8028 24.7363 25.7128C24.6963 25.6218 24.6763 25.5328 24.6763 25.4328C24.6763 25.3318 24.6963 25.2328 24.7363 25.1428C24.7763 25.0528 24.8263 24.9628 24.8963 24.9028C25.1863 24.6218 25.6763 24.6218 25.9563 24.9028C26.0963 25.0418 26.1763 25.2328 26.1763 25.4328C26.1763 25.5328 26.1663 25.6218 26.1263 25.7128C26.0863 25.8028 26.0263 25.8828 25.9563 25.9628C25.8863 26.0328 25.8063 26.0818 25.7163 26.1218C25.6263 26.1618 25.5263 26.1828 25.4263 26.1828Z" fill="#808191"/>
</svg>
