<svg width="56" height="56" viewBox="0 0 56 56" fill="none" xmlns="http://www.w3.org/2000/svg">
<path fill-rule="evenodd" clip-rule="evenodd" d="M36.8064 23.6236L36.184 22.5435C35.6574 21.6296 34.4905 21.3143 33.5753 21.8387V21.8387C33.1397 22.0953 32.6198 22.1682 32.1305 22.0411C31.6411 21.914 31.2224 21.5975 30.9666 21.1614C30.8021 20.8841 30.7137 20.5684 30.7103 20.246V20.246C30.7251 19.7292 30.5302 19.2284 30.1698 18.8577C29.8094 18.4869 29.3143 18.2779 28.7973 18.2781H27.5433C27.0367 18.2781 26.5511 18.4799 26.1938 18.8389C25.8364 19.198 25.6369 19.6846 25.6394 20.1911V20.1911C25.6244 21.2369 24.7722 22.0768 23.7263 22.0767C23.404 22.0734 23.0882 21.9849 22.811 21.8204V21.8204C21.8958 21.296 20.7289 21.6113 20.2023 22.5252L19.5341 23.6236C19.0082 24.5364 19.3192 25.7026 20.2298 26.2323V26.2323C20.8217 26.574 21.1863 27.2056 21.1863 27.8891C21.1863 28.5725 20.8217 29.2041 20.2298 29.5458V29.5458C19.3203 30.0719 19.009 31.2353 19.5341 32.1454V32.1454L20.1657 33.2346C20.4124 33.6798 20.8264 34.0083 21.3159 34.1474C21.8055 34.2866 22.3304 34.2249 22.7744 33.976V33.976C23.2108 33.7213 23.7309 33.6516 24.2191 33.7822C24.7072 33.9128 25.123 34.233 25.3739 34.6717C25.5385 34.9489 25.6269 35.2646 25.6302 35.587V35.587C25.6302 36.6435 26.4867 37.5 27.5433 37.5H28.7973C29.8502 37.5001 30.7053 36.6491 30.7103 35.5962V35.5962C30.7079 35.088 30.9086 34.6 31.2679 34.2407C31.6272 33.8814 32.1152 33.6807 32.6233 33.6831C32.9449 33.6917 33.2594 33.7798 33.5387 33.9394V33.9394C34.4515 34.4653 35.6177 34.1544 36.1474 33.2438V33.2438L36.8064 32.1454C37.0615 31.7075 37.1315 31.186 37.001 30.6964C36.8704 30.2067 36.55 29.7894 36.1108 29.5367V29.5367C35.6715 29.284 35.3511 28.8666 35.2206 28.3769C35.09 27.8873 35.16 27.3658 35.4151 26.928C35.581 26.6383 35.8211 26.3982 36.1108 26.2323V26.2323C37.0159 25.7029 37.3262 24.5435 36.8064 23.6328V23.6328V23.6236Z" stroke="#808191" stroke-width="1.5" stroke-linecap="round" stroke-linejoin="round"/>
<circle opacity="0.5" cx="28.1747" cy="27.8891" r="2.63616" stroke="#808191" stroke-width="1.5" stroke-linecap="round" stroke-linejoin="round"/>
</svg>
